<svg xmlns="http://www.w3.org/2000/svg" xmlns:xlink="http://www.w3.org/1999/xlink" width="183.552" height="51.733" viewBox="0 0 183.552 51.733">
  <defs>
    <clipPath id="clip-path">
      <rect id="Rectangle_2" data-name="Rectangle 2" width="183.552" height="51.733" fill="#a6a7b4"/>
    </clipPath>
  </defs>
  <g id="Groupe_40" data-name="Groupe 40" transform="translate(0 0)">
    <g id="Groupe_2" data-name="Groupe 2" transform="translate(0 0)" clip-path="url(#clip-path)">
      <path id="Tracé_94" data-name="Tracé 94" d="M273.781,110.149A3.771,3.771,0,0,0,276.67,109a4.041,4.041,0,0,0,1.078-2.874,3.975,3.975,0,0,0-1.064-2.875,3.728,3.728,0,0,0-2.816-1.107,3.208,3.208,0,0,0-2.374.869v-.738h-1.839v10.281h1.941V109.4a3.252,3.252,0,0,0,2.186.753m-.116-6.284a2.008,2.008,0,0,1,1.549.645,2.586,2.586,0,0,1,.015,3.279,1.992,1.992,0,0,1-1.55.637,2.019,2.019,0,0,1-1.549-.637,2.3,2.3,0,0,1-.594-1.636,2.362,2.362,0,0,1,.579-1.643,1.979,1.979,0,0,1,1.549-.645m-9.158.384a.928.928,0,0,1,.775-.34.946.946,0,0,1,.774.326,1.385,1.385,0,0,1,.268.9v4.879h1.94v-5.111a2.967,2.967,0,0,0-.63-1.969,2.807,2.807,0,0,0-3.917.087,2.1,2.1,0,0,0-1.839-.84,2.036,2.036,0,0,0-1.665.666v-.579h-1.94v7.746h1.94v-4.85a1.414,1.414,0,0,1,.275-.927.958.958,0,0,1,.782-.333.922.922,0,0,1,.76.333,1.393,1.393,0,0,1,.268.9v4.879h1.94v-4.879a1.4,1.4,0,0,1,.268-.89m-9.882-.043a1.669,1.669,0,0,1,.551,1.107h-3.5a1.708,1.708,0,0,1,.529-1.107,1.656,1.656,0,0,1,1.18-.428,1.8,1.8,0,0,1,1.245.428m2.563,1.774a3.81,3.81,0,0,0-1.028-2.8,3.711,3.711,0,0,0-2.766-1.042,3.588,3.588,0,0,0-2.743,1.137,4.06,4.06,0,0,0-1.064,2.889,3.735,3.735,0,0,0,3.968,3.982,3.7,3.7,0,0,0,2.135-.579,3.59,3.59,0,0,0,1.253-1.434l-1.434-.869a2.232,2.232,0,0,1-1.954,1.158,1.98,1.98,0,0,1-1.34-.442,1.735,1.735,0,0,1-.587-1.208h5.531q.029-.333.029-.8M246.343,100v3.924h-4V100h-2.013v10.02h2.013v-4.184h4v4.184h2.013V100Zm-15,1.434a1.128,1.128,0,0,1,.811.3,1.083,1.083,0,0,1,.333.782,1.13,1.13,0,0,1-.312.825,1.073,1.073,0,0,1-.8.319,1.1,1.1,0,0,1-.8-.319,1.066,1.066,0,0,1-.326-.8,1.1,1.1,0,0,1,.311-.8,1.06,1.06,0,0,1,.789-.318m-1.18,6.544a1.449,1.449,0,0,1-.529-1.159,1.416,1.416,0,0,1,.695-1.3l2.5,2.549a2.272,2.272,0,0,1-1.3.362,2.041,2.041,0,0,1-1.368-.449m7.03,2.041-1.882-1.954a5.732,5.732,0,0,0,.767-3.418H234.2a5.252,5.252,0,0,1-.261,1.941l-1.636-1.68a2.272,2.272,0,0,0,1.419-.782,2.407,2.407,0,0,0,.565-1.636,2.5,2.5,0,0,0-.789-1.911,3.066,3.066,0,0,0-2.179-.738,2.956,2.956,0,0,0-2.129.76,2.631,2.631,0,0,0,0,3.772,2.85,2.85,0,0,0-1.187,1.1,3.1,3.1,0,0,0-.42,1.607,2.765,2.765,0,0,0,1.05,2.23,4.913,4.913,0,0,0,5.5.058l.637.651Zm-13.2,0v-5.111a3.165,3.165,0,0,0-.572-1.976,2.182,2.182,0,0,0-1.847-.746,1.975,1.975,0,0,0-1.636.666v-.579h-1.94v7.746h1.94v-4.879a1.343,1.343,0,0,1,.282-.9.98.98,0,0,1,.789-.333q1.042,0,1.042,1.231v4.879Zm-9.643-5.813a1.669,1.669,0,0,1,.55,1.107h-3.5a1.706,1.706,0,0,1,.529-1.107,1.655,1.655,0,0,1,1.18-.428,1.8,1.8,0,0,1,1.245.428m2.563,1.774a3.808,3.808,0,0,0-1.028-2.8,3.708,3.708,0,0,0-2.766-1.042,3.588,3.588,0,0,0-2.744,1.137,4.06,4.06,0,0,0-1.064,2.889,3.735,3.735,0,0,0,3.968,3.982,3.7,3.7,0,0,0,2.135-.579,3.589,3.589,0,0,0,1.253-1.434l-1.433-.869a2.233,2.233,0,0,1-1.955,1.158,1.982,1.982,0,0,1-1.34-.442,1.736,1.736,0,0,1-.587-1.208h5.531q.029-.333.029-.8m-8.7,4.039v-5.111a3.163,3.163,0,0,0-.571-1.976,2.182,2.182,0,0,0-1.847-.746,1.974,1.974,0,0,0-1.636.666v-.579h-1.94v7.746h1.94v-4.879a1.346,1.346,0,0,1,.282-.9.98.98,0,0,1,.789-.333q1.042,0,1.043,1.231v4.879Zm-7.558-8.572a1.106,1.106,0,0,0,.333-.811,1.15,1.15,0,0,0-.333-.833,1.163,1.163,0,0,0-1.644,0,1.135,1.135,0,0,0-.34.833,1.091,1.091,0,0,0,.34.811,1.181,1.181,0,0,0,1.644,0m-1.8,8.572h1.941v-7.746h-1.941Zm-1.144-1.882h-2.533V100h-2.013v10.02h4.546Zm-5.95-3.171h-3.533v1.825h3.533Zm-3.533,5.053-2.795-4.011,2.65-3.736h-2.128l-1.564,2.2-1.564-2.2h-2.244l2.665,3.793-2.809,3.953h2.1l1.767-2.433,1.752,2.433Zm-14.2-5.509a2.166,2.166,0,0,1,3.084,0,2.293,2.293,0,0,1,.6,1.629,2.365,2.365,0,0,1-.579,1.643,1.981,1.981,0,0,1-1.549.645,2.008,2.008,0,0,1-1.55-.645,2.563,2.563,0,0,1-.007-3.272m5.567,5.509v-7.746h-1.839V103a2.392,2.392,0,0,0-.963-.623,3.745,3.745,0,0,0-1.325-.232,3.824,3.824,0,0,0-2.867,1.13,4.33,4.33,0,0,0,0,5.77,3.863,3.863,0,0,0,2.867,1.107,3.443,3.443,0,0,0,1.441-.275,2.326,2.326,0,0,0,.876-.623v.767Zm-11.163,0h1.941V99.434h-1.941Zm-1.289-6.052h-2.549v-2.085h2.621V100h-4.633v10.02h2.012v-4.2h2.549Z" transform="translate(-112.526 -68.82)" fill="#a6a7b4"/>
      <path id="Tracé_95" data-name="Tracé 95" d="M294.418,56.928V51.817a3.162,3.162,0,0,0-.572-1.976A2.18,2.18,0,0,0,292,49.095a1.975,1.975,0,0,0-1.636.666v-.579h-1.941v7.746h1.941v-4.88a1.342,1.342,0,0,1,.282-.9.978.978,0,0,1,.789-.333q1.042,0,1.043,1.231v4.88Zm-12.981-5.509a2.167,2.167,0,0,1,3.084,0,2.3,2.3,0,0,1,.6,1.629,2.366,2.366,0,0,1-.579,1.643,1.98,1.98,0,0,1-1.549.644,2.01,2.01,0,0,1-1.55-.644,2.565,2.565,0,0,1-.007-3.272M287,56.928V49.182h-1.839v.724a2.382,2.382,0,0,0-.963-.623,3.733,3.733,0,0,0-1.324-.231,3.824,3.824,0,0,0-2.867,1.129,4.333,4.333,0,0,0,0,5.77,3.867,3.867,0,0,0,2.867,1.107,3.447,3.447,0,0,0,1.441-.275,2.343,2.343,0,0,0,.876-.623v.767Zm-11.453-5.813a1.668,1.668,0,0,1,.551,1.107h-3.5a1.708,1.708,0,0,1,.529-1.107,1.653,1.653,0,0,1,1.18-.427,1.8,1.8,0,0,1,1.245.427m2.563,1.773a3.808,3.808,0,0,0-1.028-2.794,3.709,3.709,0,0,0-2.766-1.042,3.59,3.59,0,0,0-2.743,1.136,4.059,4.059,0,0,0-1.064,2.889,3.735,3.735,0,0,0,3.968,3.982,3.7,3.7,0,0,0,2.135-.579,3.588,3.588,0,0,0,1.253-1.433l-1.433-.869a2.234,2.234,0,0,1-1.955,1.158,1.982,1.982,0,0,1-1.34-.441,1.74,1.74,0,0,1-.586-1.209h5.531q.028-.333.029-.8m-12.408,4.17a3.773,3.773,0,0,0,2.889-1.151,4.041,4.041,0,0,0,1.078-2.875,3.974,3.974,0,0,0-1.064-2.874,3.725,3.725,0,0,0-2.816-1.107,3.21,3.21,0,0,0-2.374.868v-.738h-1.839v10.28h1.941V56.306a3.253,3.253,0,0,0,2.186.753m-.115-6.284a2.008,2.008,0,0,1,1.549.645,2.586,2.586,0,0,1,.015,3.279,1.991,1.991,0,0,1-1.55.637,2.017,2.017,0,0,1-1.549-.637,2.3,2.3,0,0,1-.594-1.636,2.362,2.362,0,0,1,.58-1.643,1.98,1.98,0,0,1,1.549-.645M256.4,57.059a4,4,0,1,0-2.889-6.863,4.192,4.192,0,0,0-.029,5.741,3.946,3.946,0,0,0,2.918,1.122m0-6.255a1.974,1.974,0,0,1,1.52.644,2.516,2.516,0,0,1,.015,3.229,1.97,1.97,0,0,1-1.521.63,2,2,0,0,1-1.52-.63,2.257,2.257,0,0,1-.594-1.615,2.316,2.316,0,0,1,.579-1.622,1.955,1.955,0,0,1,1.52-.637m-6.053-1v-.623H248.4v7.746h1.94V52.208a1.118,1.118,0,0,1,.232-.774,1.02,1.02,0,0,1,.782-.254h.493V49.153a1.718,1.718,0,0,0-1.506.652m-5.27,4.141q0,1.231-1.014,1.231t-1.014-1.231V49.182h-1.941V53.96q0,3.055,2.954,3.055a2.837,2.837,0,0,0,2.186-.825,3.143,3.143,0,0,0,.767-2.23V49.182h-1.94Zm-5.256,1.1H237.2V52.729h2.5V50.876h-2.5V48.791h2.577V46.908h-4.59v10.02h4.633Zm-9.8-5.241v-.623h-1.94v7.746h1.94V52.208a1.116,1.116,0,0,1,.232-.774,1.021,1.021,0,0,1,.782-.254h.492V49.153a1.718,1.718,0,0,0-1.506.652m-7.123,7.254A4,4,0,1,0,220,50.2a4.193,4.193,0,0,0-.029,5.741,3.946,3.946,0,0,0,2.918,1.122m0-6.255a1.974,1.974,0,0,1,1.52.644,2.516,2.516,0,0,1,.014,3.229,1.968,1.968,0,0,1-1.52.63,2,2,0,0,1-1.521-.63,2.261,2.261,0,0,1-.593-1.615,2.32,2.32,0,0,1,.579-1.622,1.957,1.957,0,0,1,1.521-.637M218.1,47.966h.361V46.344q-.188-.014-.622-.015a2.412,2.412,0,0,0-1.9.645,2.737,2.737,0,0,0-.565,1.86v.348h-.724v1.636h.724v6.11h1.94v-6.11h1.144V49.182h-1.144v-.333q0-.883.782-.883m-9.18,3.149a1.67,1.67,0,0,1,.55,1.107h-3.5a1.707,1.707,0,0,1,.529-1.107,1.654,1.654,0,0,1,1.18-.427,1.8,1.8,0,0,1,1.245.427m2.563,1.773a3.806,3.806,0,0,0-1.029-2.794,3.707,3.707,0,0,0-2.766-1.042,3.59,3.59,0,0,0-2.743,1.136,4.059,4.059,0,0,0-1.064,2.889,3.735,3.735,0,0,0,3.968,3.982,3.694,3.694,0,0,0,2.135-.579,3.584,3.584,0,0,0,1.253-1.433l-1.433-.869a2.235,2.235,0,0,1-1.955,1.158,1.984,1.984,0,0,1-1.34-.441,1.739,1.739,0,0,1-.586-1.209h5.531q.029-.333.029-.8m-11.975,1.8a2.217,2.217,0,0,1-.608-1.629,2.356,2.356,0,0,1,.565-1.622,1.912,1.912,0,0,1,1.506-.637,2.222,2.222,0,0,1,1.593.637l1.115-1.347a3.622,3.622,0,0,0-2.722-1.042,3.838,3.838,0,0,0-2.86,1.158,4.215,4.215,0,0,0-.037,5.719,3.879,3.879,0,0,0,2.91,1.13,3.555,3.555,0,0,0,2.708-1.086l-1.071-1.3a2.508,2.508,0,0,1-1.622.637,2,2,0,0,1-1.477-.615m-3.649,2.237V51.817a3.166,3.166,0,0,0-.572-1.976,2.182,2.182,0,0,0-1.847-.746,1.976,1.976,0,0,0-1.636.666v-.579h-1.94v7.746h1.94v-4.88a1.344,1.344,0,0,1,.282-.9.978.978,0,0,1,.789-.333q1.042,0,1.042,1.231v4.88Zm-12.98-5.509a2.166,2.166,0,0,1,3.084,0,2.3,2.3,0,0,1,.6,1.629,2.363,2.363,0,0,1-.579,1.643,1.979,1.979,0,0,1-1.549.644,2.008,2.008,0,0,1-1.549-.644,2.562,2.562,0,0,1-.007-3.272m5.567,5.509V49.182h-1.839v.724a2.385,2.385,0,0,0-.963-.623,3.733,3.733,0,0,0-1.324-.231,3.824,3.824,0,0,0-2.867,1.129,4.333,4.333,0,0,0,0,5.77,3.866,3.866,0,0,0,2.867,1.107,3.443,3.443,0,0,0,1.44-.275,2.338,2.338,0,0,0,.876-.623v.767Zm-9.368-8.572a1.1,1.1,0,0,0,.333-.811,1.146,1.146,0,0,0-.333-.832,1.163,1.163,0,0,0-1.644,0,1.131,1.131,0,0,0-.34.832,1.091,1.091,0,0,0,.34.811,1.18,1.18,0,0,0,1.644,0m-1.8,8.572h1.941V49.182h-1.941Zm-3.359,0h1.941V46.344h-1.941Zm-3.36,0H172.5V46.344h-1.941Zm-4.6-4.46h-2.187l1.086-3.011Zm3.75,4.46-3.794-10.02H163.8l-3.62,10.02h1.984l.984-2.751h3.432l1,2.751Z" transform="translate(-110.865 -32.065)" fill="#a6a7b4"/>
      <path id="Tracé_96" data-name="Tracé 96" d="M38.695,42.518l-.31-27.433a.642.642,0,0,0-.644-.669.683.683,0,0,0-.69.622l-2.861,17.3c-.022.135-.163.121-.164-.016l-.145-19.31a.64.64,0,0,0-.644-.668.673.673,0,0,0-.68.634L29.685,33.21c-.02.138-.164.125-.164-.015l-.147-22.257a.639.639,0,0,0-.641-.669.664.664,0,0,0-.67.645l-2.883,23.3c-.018.139-.164.127-.165-.014L24.869,8.865a.639.639,0,0,0-.643-.669.658.658,0,0,0-.664.651l-2.89,26.6c-.015.141-.163.131-.165-.01l-.144-28.7a.617.617,0,0,0-.64-.617.673.673,0,0,0-.7.6L16.118,33.94c-.015.142-.164.131-.165-.01L15.82,8.916a.656.656,0,1,0-1.307-.126l-2.9,24.148c-.017.14-.164.129-.165-.013l-.131-21.937A.661.661,0,0,0,10,10.854L7.107,32.067c-.019.138-.164.127-.165-.014l-.131-18.99a.653.653,0,0,0-.641-.72.667.667,0,0,0-.686.571L2.6,30.954c-.022.137-.163.123-.165-.015L2.3,15.034a.605.605,0,0,0-.617-.617.607.607,0,0,0-.617.617L.76,42.518a.9.9,0,0,0,.928.929,1.019,1.019,0,0,0,1.058-.836L5.358,24.383c.018-.125.166-.111.165.016L5.265,44.591a.9.9,0,0,0,.927.928,1,1,0,0,0,1.043-.853L9.862,23.079c.016-.126.166-.115.165.013L9.771,46.665a.9.9,0,0,0,.928.93.989.989,0,0,0,1.032-.868l2.637-25.118c.013-.129.165-.118.165.011l-.256,27.12a.9.9,0,0,0,.927.928.981.981,0,0,0,1.023-.879l2.687-28.5c.012-.129.166-.119.165.01l-.259,30.51a.885.885,0,0,0,.9.92.959.959,0,0,0,1-.819L23.4,21.921c.012-.129.166-.12.165.01l-.244,26.757a.914.914,0,0,0,.928.98.987.987,0,0,0,1.032-.868l2.623-25.37c.014-.129.167-.119.166.012L27.83,46.614a.913.913,0,0,0,.927.981,1,1,0,0,0,1.044-.855l2.609-22c.015-.127.166-.116.165.012L32.334,44.54a.912.912,0,0,0,.928.98,1.014,1.014,0,0,0,1.057-.836l2.6-18.711c.018-.125.167-.112.165.016l-.24,16.477a.91.91,0,0,0,.927.98.9.9,0,0,0,.928-.928M3.314,10.367A1.62,1.62,0,0,0,1.657,8.708a1.659,1.659,0,0,0,0,3.318,1.619,1.619,0,0,0,1.658-1.659M7.679,9.122A1.619,1.619,0,0,0,9.336,7.464a1.657,1.657,0,1,0-3.314,0A1.618,1.618,0,0,0,7.679,9.122M13.7,6.22a1.619,1.619,0,0,0,1.657-1.658,1.657,1.657,0,1,0-3.314,0A1.618,1.618,0,0,0,13.7,6.22m6.022-2.9a1.619,1.619,0,0,0,1.657-1.659,1.657,1.657,0,1,0-3.315,0,1.619,1.619,0,0,0,1.658,1.659m6.022,3.034A1.619,1.619,0,0,0,27.4,4.693a1.657,1.657,0,1,0-3.314,0,1.619,1.619,0,0,0,1.657,1.659m6.022,2.9A1.619,1.619,0,0,0,33.425,7.6a1.657,1.657,0,1,0-3.314,0,1.619,1.619,0,0,0,1.657,1.659m6.022-.415A1.659,1.659,0,1,0,39.447,10.5,1.619,1.619,0,0,0,37.79,8.839" fill="#a6a7b4"/>
    </g>
  </g>
</svg>
