<svg xmlns="http://www.w3.org/2000/svg" xmlns:xlink="http://www.w3.org/1999/xlink" width="89.542" height="68.357" viewBox="0 0 89.542 68.357">
  <defs>
    <clipPath id="clip-path">
      <rect id="Rectangle_9" data-name="Rectangle 9" width="89.542" height="68.357" fill="#a6a7b4"/>
    </clipPath>
  </defs>
  <g id="Groupe_46" data-name="Groupe 46" transform="translate(0 0)">
    <path id="Tracé_129" data-name="Tracé 129" d="M32.992,40.277l-3.233-6.536,2.283,6.874L26.57,35.851l4.747,5.491-6.889-2.309,6.495,3.258-7.25.5,7.246.518-6.5,3.243,6.9-2.3-4.776,5.487,5.5-4.76-2.3,6.9,3.256-6.5.493,7.255.531-7.251,3.238,6.526-2.289-6.87L40.437,49.8,35.681,44.32l6.893,2.3-6.5-3.247,7.255-.511-7.252-.515,6.5-3.25L35.69,41.4l4.772-5.491-5.5,4.766,2.314-6.9-3.258,6.507-.5-7.258Z" transform="translate(11.269 15.719)" fill="#a6a7b4"/>
    <g id="Groupe_15" data-name="Groupe 15" transform="translate(0 0)">
      <g id="Groupe_14" data-name="Groupe 14" clip-path="url(#clip-path)">
        <path id="Tracé_130" data-name="Tracé 130" d="M22.52,6.895a6.769,6.769,0,0,0-.865-.254,4.472,4.472,0,0,0-3.875,1.2,5.638,5.638,0,0,0-1.063,2.084c-.1.366-.211.711-.294,1.089a22.21,22.21,0,0,0-.23,7.869c.055.39.109.76.174,1.154a14.3,14.3,0,0,0,.366,1.426,4.94,4.94,0,0,0,.968,1.821,3.126,3.126,0,0,0,.992.8,3.373,3.373,0,0,0,2.809.337,3.412,3.412,0,0,0,2.455-2.343,7.949,7.949,0,0,0,.184-1.829c.024-1.224.013-2.174-.049-3.423a.607.607,0,0,0-.542-.52,20.834,20.834,0,0,0-2.9-.151v-.7h9.357v.737H27.177c-.08,0-.077.471-.077.558v7.559h-.618s.01-1.5-.236-1.7c-.564-.441-.9-.353-1.686.384a7.337,7.337,0,0,1-2.66,1.917,5.29,5.29,0,0,1-3.351.066,5.739,5.739,0,0,1-1.343-.54,13.3,13.3,0,0,1-1.782-1.278c-.226-.192-.242-.3-.583-.648a5.445,5.445,0,0,1-1.008-1.389c-.217-.444-.379-.874-.556-1.311a9.809,9.809,0,0,1-.509-2.356A10.981,10.981,0,0,1,14.779,9.4a7.427,7.427,0,0,1,5.968-3.349,4.463,4.463,0,0,1,2.862.878" transform="translate(6.023 2.88)" fill="#a6a7b4"/>
        <path id="Tracé_131" data-name="Tracé 131" d="M42.065,6.6a6.158,6.158,0,0,1,.559-.309,5.606,5.606,0,0,1,3.1-.152,5.194,5.194,0,0,1,1.646.818c.59.381,1.664,1.7,2.049,1.776.735.1.785-2.526.785-2.526h.574v7.315s-.536.156-.568-.031c-.444-2.912-1.485-5.163-4.028-6.594A2.75,2.75,0,0,0,45.3,6.64a7.2,7.2,0,0,0-1.709.072,3.206,3.206,0,0,0-2.23,1.34,2.394,2.394,0,0,0-.354,1.6c.342,2.632,2.911,3.2,4.856,3.826A29.327,29.327,0,0,1,49.2,14.527a2.744,2.744,0,0,1,.561.307c1.942,1.448,2.279,4.012,1.689,6.3a5.616,5.616,0,0,1-2.177,3.2,4.485,4.485,0,0,1-2.629.83c-1.7.078-3.2-1.06-4.413-2.447-.565-.641-1.107-1-1.46-.458a4.752,4.752,0,0,0-.475,2.087h-.554V16.525h.5a28.5,28.5,0,0,0,1.17,3.994,10.724,10.724,0,0,0,1.565,2.325,4.6,4.6,0,0,0,1.064.933,4.705,4.705,0,0,0,2.27.816,3.415,3.415,0,0,0,3.63-4.044c-.744-3.182-4.129-3.454-6.579-4.3A6.163,6.163,0,0,1,40.422,14.4a3.612,3.612,0,0,1-.483-.747c-1.154-2.533-.276-5.915,2.126-7.051" transform="translate(18.773 2.852)" fill="#a6a7b4"/>
        <path id="Tracé_132" data-name="Tracé 132" d="M35.318,0s5.494,16.507,8.6,25.175c.09.252.985,2.573.985,2.573a14.7,14.7,0,0,0,2.946.1l-.007.889H35.148v-.889h4.214c.633,0,.484-.554.322-1.168-.7-2.564-2.18-6.787-2.18-6.787l-.339-.847H29.9s-1.389,4.213-2,6.349c-.53,1.85,1.352,2.453,3.65,2.453.106,0,0,.889,0,.889H22.478s-.027-.886,0-.886,2.8.3,3.963-2.019a60.159,60.159,0,0,0,2.9-7.655C29.852,16.723,35.318,0,35.318,0M33.486,7.863,30.035,18.349h6.917Z" transform="translate(10.695 0)" fill="#a6a7b4"/>
        <path id="Tracé_133" data-name="Tracé 133" d="M20.426,6.891c.595.382,1.709,1.7,2.093,1.776.734.1.788-2.527.788-2.527h.576l0,7.317s-.537.156-.57-.032c-.444-2.958-1.4-5.123-3.972-6.572" transform="translate(9.205 2.923)" fill="#a6a7b4"/>
        <path id="Tracé_134" data-name="Tracé 134" d="M1.1,27.255h.117c.359,0,.912-.047.912.465,0,.472-.555.452-.886.452H1.1Zm.608,1.77c.779,0,1.542-.3,1.542-1.191a.962.962,0,0,0-.877-1.088v-.01a.888.888,0,0,0,.472-.869c0-.819-.512-1.114-1.271-1.114H0v4.273ZM1.1,25.605h.078c.3,0,.648.024.648.412,0,.366-.307.413-.6.413H1.1Z" transform="translate(0 11.784)" fill="#a6a7b4"/>
        <rect id="Rectangle_8" data-name="Rectangle 8" width="1.107" height="4.273" transform="translate(17.133 36.536)" fill="#a6a7b4"/>
        <path id="Tracé_135" data-name="Tracé 135" d="M24.126,24.752v2.887a1.33,1.33,0,0,1-1.411,1.5,1.275,1.275,0,0,1-1.106-.63l.644-.673c.118.17.294.365.44.365.331,0,.319-.393.319-.626V24.752Z" transform="translate(10.287 11.784)" fill="#a6a7b4"/>
        <path id="Tracé_136" data-name="Tracé 136" d="M35.176,25.732a1.2,1.2,0,0,1,1.207,1.126,1.208,1.208,0,1,1-2.413,0,1.2,1.2,0,0,1,1.206-1.126m0-1.07a2.274,2.274,0,1,0,2.354,2.193,2.273,2.273,0,0,0-2.354-2.193" transform="translate(15.622 11.741)" fill="#a6a7b4"/>
        <path id="Tracé_137" data-name="Tracé 137" d="M49.409,24.752v2.4a1.916,1.916,0,0,1-.455,1.509,2,2,0,0,1-1.405.474,2.017,2.017,0,0,1-1.414-.474,1.946,1.946,0,0,1-.45-1.509v-2.4h1.109V27c0,.554.044,1.16.756,1.16s.751-.607.751-1.16v-2.25Z" transform="translate(21.748 11.784)" fill="#a6a7b4"/>
        <path id="Tracé_138" data-name="Tracé 138" d="M57.891,24.752h1.362l.646,1.11.651-1.11h1.37l-1.37,1.99,1.579,2.283H60.794L59.9,27.631l-.979,1.395H57.582l1.671-2.283Z" transform="translate(27.412 11.784)" fill="#a6a7b4"/>
      </g>
    </g>
  </g>
</svg>
