<svg xmlns="http://www.w3.org/2000/svg" xmlns:xlink="http://www.w3.org/1999/xlink" width="81.258" height="25.756" viewBox="0 0 81.258 25.756">
  <defs>
    <clipPath id="clip-path">
      <rect id="Rectangle_17" data-name="Rectangle 17" width="81.258" height="25.756" fill="#a6a7b4"/>
    </clipPath>
  </defs>
  <g id="Groupe_49" data-name="Groupe 49" transform="translate(0 0)">
    <g id="Groupe_22" data-name="Groupe 22" transform="translate(0 0)" clip-path="url(#clip-path)">
      <path id="Tracé_169" data-name="Tracé 169" d="M9.064,3.62A9.1,9.1,0,0,0,.006,12.5,8.648,8.648,0,0,0,2.391,18.88a8.367,8.367,0,0,0,6.082,2.547,8.857,8.857,0,0,0,6.332-2.7l-1.056-1.061A7.388,7.388,0,0,1,8.473,19.93a6.882,6.882,0,0,1-5-2.088A7.169,7.169,0,0,1,1.5,12.55,7.613,7.613,0,0,1,9.064,5.117c4.148,0,6.826,2.907,6.826,7.406v8.133h1.5V12.524c0-5.325-3.344-8.9-8.324-8.9" transform="translate(0 4.329)" fill="#a6a7b4"/>
      <path id="Tracé_170" data-name="Tracé 170" d="M28.968,7.944a7.813,7.813,0,0,0-6.528,3.733V0h-1.5V25h1.5V16.843c0-4.08,2.929-7.4,6.528-7.4,3.842,0,6.528,3.045,6.528,7.4V25h1.5V16.843c0-5.158-3.375-8.9-8.025-8.9" transform="translate(25.041 0)" fill="#a6a7b4"/>
      <path id="Tracé_171" data-name="Tracé 171" d="M32.154,13.268h14.2V12.52c0-5.074-3.643-8.9-8.475-8.9a8.7,8.7,0,0,0-8.686,8.9,8.7,8.7,0,0,0,8.686,8.9,8.883,8.883,0,0,0,7.876-4.749l-1.324-.7a7.388,7.388,0,0,1-6.552,3.952,7.22,7.22,0,0,1-7.189-7.4,7.221,7.221,0,0,1,7.189-7.4,6.973,6.973,0,0,1,6.947,6.655H32.154Z" transform="translate(34.904 4.326)" fill="#a6a7b4"/>
      <path id="Tracé_172" data-name="Tracé 172" d="M9.262,11.495v9.158h1.445V11.495c0-3.838,2.237-6.416,5.568-6.416V3.632c-4.128,0-7.013,3.234-7.013,7.863" transform="translate(11.074 4.343)" fill="#a6a7b4"/>
      <path id="Tracé_173" data-name="Tracé 173" d="M21.271,5.078a7.325,7.325,0,0,1,6.5,3.965l1.28-.67A8.777,8.777,0,0,0,12.482,12.5a8.777,8.777,0,0,0,16.571,4.13l-1.282-.67a7.32,7.32,0,0,1-6.5,3.965,7.426,7.426,0,0,1,0-14.852" transform="translate(14.925 4.344)" fill="#a6a7b4"/>
    </g>
  </g>
</svg>
