<svg xmlns="http://www.w3.org/2000/svg" xmlns:xlink="http://www.w3.org/1999/xlink" width="132.369" height="26.283" viewBox="0 0 132.369 26.283">
  <defs>
    <clipPath id="clip-path">
      <rect id="Rectangle_4" data-name="Rectangle 4" width="132.369" height="26.283" fill="#a6a7b4"/>
    </clipPath>
  </defs>
  <g id="Groupe_42" data-name="Groupe 42" transform="translate(0)">
    <g id="Groupe_6" data-name="Groupe 6" transform="translate(0 0)" clip-path="url(#clip-path)">
      <path id="Tracé_98" data-name="Tracé 98" d="M454.408,97.757a2.228,2.228,0,0,0-.91-.952,2.743,2.743,0,0,0-1.346-.321,2.943,2.943,0,0,0-1.492.376,2.633,2.633,0,0,0-1.025,1.067,3.339,3.339,0,0,0-.37,1.6,3.374,3.374,0,0,0,.37,1.607,2.623,2.623,0,0,0,1.025,1.074,2.942,2.942,0,0,0,1.492.376,2.64,2.64,0,0,0,1.832-.631,2.743,2.743,0,0,0,.861-1.71h-3.166v-1.1h4.646v1.079a4.164,4.164,0,0,1-4.173,3.615,4.357,4.357,0,0,1-2.171-.552,4.114,4.114,0,0,1-1.559-1.535,4.564,4.564,0,0,1,0-4.439,4.1,4.1,0,0,1,1.565-1.534,4.6,4.6,0,0,1,4.561.109,3.766,3.766,0,0,1,1.522,1.874Z" transform="translate(-364.795 -77.563)" fill="#a6a7b4"/>
      <path id="Tracé_99" data-name="Tracé 99" d="M516.047,104.24l-1.941-3.372h-1.055v3.372h-1.383V95.81h2.911a3.621,3.621,0,0,1,1.643.34,2.36,2.36,0,0,1,1.007.91,2.477,2.477,0,0,1,.333,1.274,2.522,2.522,0,0,1-.479,1.5,2.431,2.431,0,0,1-1.474.916l2.086,3.493Zm-3-4.476h1.528a1.6,1.6,0,0,0,1.171-.388,1.4,1.4,0,0,0,.394-1.043,1.348,1.348,0,0,0-.388-1.025,1.649,1.649,0,0,0-1.176-.37h-1.528Z" transform="translate(-416.782 -78.042)" fill="#a6a7b4"/>
      <path id="Tracé_100" data-name="Tracé 100" d="M563.439,103.294a4.09,4.09,0,0,1-1.564-1.541,4.575,4.575,0,0,1,0-4.446,4.1,4.1,0,0,1,1.564-1.534,4.547,4.547,0,0,1,4.343,0,4.061,4.061,0,0,1,1.559,1.534,4.618,4.618,0,0,1,0,4.446,4.047,4.047,0,0,1-1.559,1.541,4.547,4.547,0,0,1-4.343,0m3.657-1.031a2.647,2.647,0,0,0,1.025-1.092,3.823,3.823,0,0,0,0-3.281,2.617,2.617,0,0,0-1.025-1.079,3.147,3.147,0,0,0-2.984,0,2.618,2.618,0,0,0-1.025,1.079,3.823,3.823,0,0,0,0,3.281,2.648,2.648,0,0,0,1.025,1.092,3.1,3.1,0,0,0,2.984,0" transform="translate(-457.208 -77.563)" fill="#a6a7b4"/>
      <path id="Tracé_101" data-name="Tracé 101" d="M627.158,95.81v5.374a1.916,1.916,0,0,0,.5,1.444,1.916,1.916,0,0,0,3.318-1.444V95.81h1.383v5.349a3.225,3.225,0,0,1-.449,1.747,2.785,2.785,0,0,1-1.2,1.067,3.873,3.873,0,0,1-1.662.352,3.834,3.834,0,0,1-1.656-.352,2.716,2.716,0,0,1-1.182-1.067,3.293,3.293,0,0,1-.437-1.747V95.81Z" transform="translate(-509.729 -78.042)" fill="#a6a7b4"/>
      <path id="Tracé_102" data-name="Tracé 102" d="M686.342,99.534a2.271,2.271,0,0,1-.97.928,3.6,3.6,0,0,1-1.71.358h-1.529v3.421H680.75V95.81h2.911a3.676,3.676,0,0,1,1.643.333,2.324,2.324,0,0,1,1.007.9,2.477,2.477,0,0,1,.333,1.274,2.546,2.546,0,0,1-.3,1.213m-1.5-.2a1.309,1.309,0,0,0,.388-1.013q0-1.383-1.565-1.383h-1.529v2.754h1.529a1.686,1.686,0,0,0,1.177-.358" transform="translate(-554.509 -78.042)" fill="#a6a7b4"/>
      <path id="Tracé_103" data-name="Tracé 103" d="M367.722,14.808h2.487l-3.164-4.514.2-.078c.053-.02.1-.042.154-.064a4.566,4.566,0,0,0,1.991-1.65,4.594,4.594,0,0,0,.7-2.565,4.765,4.765,0,0,0-.7-2.605,4.464,4.464,0,0,0-1.99-1.659,7.725,7.725,0,0,0-3.131-.577h-5.62V14.811h2.344V10.741h3.277c.165,0,.337-.005.538-.015l.069,0,2.849,4.088Zm-3.577-5.955h-3.157V3.037h3.157a4.07,4.07,0,0,1,2.663.758,2.651,2.651,0,0,1,.912,2.14,2.678,2.678,0,0,1-.912,2.15,4.034,4.034,0,0,1-2.665.769Z" transform="translate(-292.137 -0.893)" fill="#a6a7b4"/>
      <path id="Tracé_104" data-name="Tracé 104" d="M441.7.008a8.125,8.125,0,0,0-2.967.53,7.181,7.181,0,0,0-2.353,1.48,6.673,6.673,0,0,0-1.546,2.232,7.1,7.1,0,0,0-.549,2.814,7,7,0,0,0,.549,2.793,6.788,6.788,0,0,0,1.548,2.243,7.087,7.087,0,0,0,2.363,1.49,8.564,8.564,0,0,0,5.905.009,6.8,6.8,0,0,0,3.881-3.722,7.108,7.108,0,0,0,.549-2.814,7.179,7.179,0,0,0-.549-2.823A6.758,6.758,0,0,0,447,2,6.954,6.954,0,0,0,444.653.528a8.191,8.191,0,0,0-2.948-.52Zm0,12.089a5.446,5.446,0,0,1-2.012-.367,4.626,4.626,0,0,1-1.609-1.056,5.071,5.071,0,0,1-1.453-3.608,5.035,5.035,0,0,1,1.452-3.61A4.623,4.623,0,0,1,439.69,2.4a5.445,5.445,0,0,1,2.012-.367,5.27,5.27,0,0,1,1.992.369,4.864,4.864,0,0,1,1.6,1.044,4.664,4.664,0,0,1,1.056,1.6,5.425,5.425,0,0,1,.367,2.021,5.307,5.307,0,0,1-.378,2.022,4.861,4.861,0,0,1-1.054,1.6,4.758,4.758,0,0,1-1.587,1.045,5.3,5.3,0,0,1-1.992.369Z" transform="translate(-353.751 -0.007)" fill="#a6a7b4"/>
      <path id="Tracé_105" data-name="Tracé 105" d="M535.142.008a8.126,8.126,0,0,0-2.967.53,7.185,7.185,0,0,0-2.353,1.48,6.679,6.679,0,0,0-1.547,2.232,7.1,7.1,0,0,0-.549,2.814,7,7,0,0,0,.549,2.793,6.792,6.792,0,0,0,1.548,2.243,7.087,7.087,0,0,0,2.362,1.49,8.565,8.565,0,0,0,5.906.009,6.8,6.8,0,0,0,3.881-3.722,7.109,7.109,0,0,0,.549-2.814,7.18,7.18,0,0,0-.549-2.823A6.76,6.76,0,0,0,540.435,2,6.953,6.953,0,0,0,538.092.528a8.194,8.194,0,0,0-2.948-.52Zm0,12.089a5.446,5.446,0,0,1-2.011-.367,4.624,4.624,0,0,1-1.609-1.056,5.07,5.07,0,0,1-1.453-3.608,5.034,5.034,0,0,1,1.452-3.61A4.621,4.621,0,0,1,533.129,2.4a5.444,5.444,0,0,1,2.011-.367,5.271,5.271,0,0,1,1.993.369,4.866,4.866,0,0,1,1.6,1.044,4.668,4.668,0,0,1,1.056,1.6,5.425,5.425,0,0,1,.367,2.021,5.3,5.3,0,0,1-.378,2.022,4.861,4.861,0,0,1-1.054,1.6,4.759,4.759,0,0,1-1.587,1.045,5.3,5.3,0,0,1-1.993.369Z" transform="translate(-429.862 -0.007)" fill="#a6a7b4"/>
      <path id="Tracé_106" data-name="Tracé 106" d="M162.791.008a8.125,8.125,0,0,0-2.967.53,7.182,7.182,0,0,0-2.353,1.48,6.692,6.692,0,0,0-1.547,2.232,7.1,7.1,0,0,0-.549,2.814,7,7,0,0,0,.549,2.793,6.792,6.792,0,0,0,1.548,2.243,7.087,7.087,0,0,0,2.363,1.49,8.565,8.565,0,0,0,5.906.009,6.8,6.8,0,0,0,3.881-3.722,7.108,7.108,0,0,0,.549-2.814,7.179,7.179,0,0,0-.549-2.823A6.758,6.758,0,0,0,168.084,2,6.951,6.951,0,0,0,165.741.528a8.192,8.192,0,0,0-2.948-.52Zm0,12.089a5.451,5.451,0,0,1-2.012-.367,4.625,4.625,0,0,1-1.609-1.056,5.071,5.071,0,0,1-1.453-3.608,5.027,5.027,0,0,1,1.453-3.61A4.62,4.62,0,0,1,160.779,2.4a5.444,5.444,0,0,1,2.012-.367,5.269,5.269,0,0,1,1.992.369,4.841,4.841,0,0,1,1.6,1.044,4.659,4.659,0,0,1,1.056,1.6,5.42,5.42,0,0,1,.367,2.021,5.3,5.3,0,0,1-.378,2.022,4.861,4.861,0,0,1-1.055,1.6,4.758,4.758,0,0,1-1.587,1.045,5.3,5.3,0,0,1-1.992.369Z" transform="translate(-126.562 -0.007)" fill="#a6a7b4"/>
      <path id="Tracé_107" data-name="Tracé 107" d="M84.22,14.8h2.323V1.082H84.22l0,5.473a.342.342,0,0,1-.339.292H77.1a.354.354,0,0,1-.354-.358V1.082H74.406V14.8H76.75V9.179a.356.356,0,0,1,.343-.369h6.786a.342.342,0,0,1,.339.292l0,.026V14.8Z" transform="translate(-60.608 -0.881)" fill="#a6a7b4"/>
      <path id="Tracé_108" data-name="Tracé 108" d="M260.856,1.075l-1.6,10.186-4.4-8.706h-.995l-4.4,8.706-1.6-10.186H245.5l2.152,13.715h2.3l4.4-8.926,4.4,8.926h2.3l2.154-13.715Z" transform="translate(-199.976 -0.876)" fill="#a6a7b4"/>
      <path id="Tracé_109" data-name="Tracé 109" d="M620.625,14.8l1.6-10.186,4.4,8.706h1l4.4-8.706,1.6,10.186h2.363L633.825,1.082h-2.3l-4.4,8.926-4.4-8.926h-2.3L618.263,14.8Z" transform="translate(-503.61 -0.881)" fill="#a6a7b4"/>
      <path id="Tracé_110" data-name="Tracé 110" d="M5.429,14.114a10.39,10.39,0,0,1-3.1-.462A7.129,7.129,0,0,1,0,12.5l.846-1.881a7.506,7.506,0,0,0,2.029,1.049A7.668,7.668,0,0,0,5.43,12.1a5.576,5.576,0,0,0,1.8-.241A2.2,2.2,0,0,0,8.252,11.2a1.512,1.512,0,0,0,.332-.958A1.326,1.326,0,0,0,8.1,9.176a3.46,3.46,0,0,0-1.209-.625c-.485-.152-1.03-.292-1.621-.416S4.089,7.855,3.5,7.672a7.977,7.977,0,0,1-1.613-.7A3.311,3.311,0,0,1,.724,5.858,3.317,3.317,0,0,1,.285,4.072a3.712,3.712,0,0,1,.6-2.033A4.143,4.143,0,0,1,2.712.558,7.68,7.68,0,0,1,5.849,0,10,10,0,0,1,8.326.315a7.255,7.255,0,0,1,2.093.874L9.648,3.071a7.773,7.773,0,0,0-1.888-.79,7.5,7.5,0,0,0-1.932-.27,5.049,5.049,0,0,0-1.758.261,2.16,2.16,0,0,0-1.015.7,1.628,1.628,0,0,0-.321.976A1.342,1.342,0,0,0,3.2,5.018a3.256,3.256,0,0,0,1.2.615c.484.145,1.032.285,1.631.416s1.19.287,1.77.464a7.731,7.731,0,0,1,1.6.686A3.366,3.366,0,0,1,10.574,8.3a3.221,3.221,0,0,1,.439,1.757,3.676,3.676,0,0,1-.6,2.013,4.136,4.136,0,0,1-1.838,1.48,7.749,7.749,0,0,1-3.146.559Z" transform="translate(0 0)" fill="#a6a7b4"/>
      <path id="Tracé_111" data-name="Tracé 111" d="M389.595,102.86a3.554,3.554,0,1,1-3.554,3.554,3.554,3.554,0,0,1,3.554-3.554" transform="translate(-314.452 -83.785)" fill="#a6a7b4"/>
    </g>
  </g>
</svg>
