<svg xmlns="http://www.w3.org/2000/svg" xmlns:xlink="http://www.w3.org/1999/xlink" width="76.831" height="47.095" viewBox="0 0 76.831 47.095">
  <defs>
    <clipPath id="clip-path">
      <rect id="Rectangle_5" data-name="Rectangle 5" width="76.831" height="47.095" fill="#a6a7b4"/>
    </clipPath>
  </defs>
  <g id="Groupe_43" data-name="Groupe 43" transform="translate(0 0)">
    <g id="Groupe_8" data-name="Groupe 8" transform="translate(0 0)" clip-path="url(#clip-path)">
      <path id="Tracé_112" data-name="Tracé 112" d="M133.874,100.93a2.489,2.489,0,0,0-2.5,2.069h4.862a2.234,2.234,0,0,0-2.358-2.069" transform="translate(-104.755 -80.481)" fill="#a6a7b4"/>
      <path id="Tracé_113" data-name="Tracé 113" d="M68.434,103.49a2.7,2.7,0,0,0-2.834,2.877,2.856,2.856,0,1,0,2.834-2.877" transform="translate(-52.31 -82.523)" fill="#a6a7b4"/>
      <path id="Tracé_114" data-name="Tracé 114" d="M51.215,18.214c-2.609,0-4.644,1.043-4.974,3.748h-.008C45.41,9.7,35.734,0,23.26,0a23.55,23.55,0,0,0-21.8,14.656H9.814L9.38,17.47H2.82v2.98H8.758L8.3,23.162H2.82V24.9c0,1.056.456,1.552,1.325,1.552H9.753L9.3,29.266H3.09a4.919,4.919,0,0,1-.863-.077,2.775,2.775,0,0,1-1.74-.981,2.309,2.309,0,0,1-.421-.871C.03,27.2.028,27.189,0,27.082c.045.35.12.821.152.995.188.981.43,1.813.45,1.872A23.55,23.55,0,0,0,23.26,47.1,23.842,23.842,0,0,0,46.166,29.266H43V23.514c0-1.552-.6-2.545-2.131-2.545s-2.131.993-2.131,2.545v5.752H35.572V22.728c0-3.124,2.275-4.51,5.3-4.51s5.3,1.386,5.3,4.51v6.538h3.183V23.514c0-1.552.413-2.545,1.925-2.545a3.506,3.506,0,0,1,1.262.249l.6-2.774a15.633,15.633,0,0,0-1.925-.227ZM22.189,23.2c0,3.953-2.338,6.271-6.208,6.271-3.58,0-6-2.4-6-5.628a5.45,5.45,0,0,1,5.732-5.628,4.556,4.556,0,0,1,3.31,1.242v-4.8h3.167V23.2Zm7.986,3.89a6.185,6.185,0,0,0,2.6-.642l-.263,2.5a8.353,8.353,0,0,1-3.1.517c-3.641,0-6.208-2.131-6.208-5.752,0-3.144,2.3-5.5,5.815-5.5,3.973,0,5.958,2.524,5.875,6.414H26.7a3.249,3.249,0,0,0,3.477,2.462Z" fill="#a6a7b4"/>
      <path id="Tracé_115" data-name="Tracé 115" d="M265.345,89.9c-3.517,0-5.815,2.358-5.815,5.5,0,3.62,2.565,5.752,6.208,5.752a8.352,8.352,0,0,0,3.1-.517l.263-2.5a6.178,6.178,0,0,1-2.6.642,3.249,3.249,0,0,1-3.477-2.462h8.2c.083-3.89-1.9-6.414-5.877-6.414Zm-2.4,4.3a2.489,2.489,0,0,1,2.5-2.069,2.232,2.232,0,0,1,2.358,2.069Z" transform="translate(-206.95 -71.686)" fill="#a6a7b4"/>
      <path id="Tracé_116" data-name="Tracé 116" d="M328.012,72.332v4.8A4.565,4.565,0,0,0,324.7,75.89a5.371,5.371,0,0,0-5.731,5.628c0,3.373,2.421,5.628,6,5.628,3.87,0,6.208-2.318,6.208-6.271V72.33h-3.167Zm-2.9,12.083a2.887,2.887,0,1,1,2.877-2.9,2.743,2.743,0,0,1-2.877,2.9" transform="translate(-254.347 -57.676)" fill="#a6a7b4"/>
    </g>
  </g>
</svg>
