<svg xmlns="http://www.w3.org/2000/svg" xmlns:xlink="http://www.w3.org/1999/xlink" width="134.396" height="23.278" viewBox="0 0 134.396 23.278">
  <defs>
    <clipPath id="clip-path">
      <rect id="Rectangle_6" data-name="Rectangle 6" width="134.396" height="23.278" fill="#a6a7b4"/>
    </clipPath>
  </defs>
  <g id="Groupe_44" data-name="Groupe 44" transform="translate(0)">
    <g id="Groupe_10" data-name="Groupe 10" transform="translate(0 0)" clip-path="url(#clip-path)">
      <path id="Tracé_117" data-name="Tracé 117" d="M0,84.669q21.347,12.73,42.646-.012c-5.092,6.822-11.825,10.759-20.415,11.031C12.9,95.984,5.566,92.005,0,84.669" transform="translate(0 -72.903)" fill="#a6a7b4"/>
      <path id="Tracé_118" data-name="Tracé 118" d="M825.787,6.272a3.029,3.029,0,0,1-.389-.562c-.4-1.007-.748-2.038-1.189-3.028a1.53,1.53,0,0,0-.788-.8c-3.339-1.032-8.117-.743-10.746,3.383a10.409,10.409,0,0,0-1.552,4.626c-.316,3.165.024,6.207,2.027,8.836a7.889,7.889,0,0,0,6.753,3.2,30.544,30.544,0,0,0,3.361-.423c.41-.054.578-.263.575-.7-.016-1.92.029-3.841-.031-5.76a1.321,1.321,0,0,0-.666-.915c-.844-.419-1.755-.7-2.629-1.068a4.058,4.058,0,0,1-.684-.514h9.895c-.125.165-.219.4-.392.5-.568.307-1.16.571-1.751.833a1.255,1.255,0,0,0-.819,1.246c.01,2.2.015,4.4.038,6.593,0,.316.064.579-.356.684-3.638.905-7.3,1.314-10.957.2-4.564-1.383-7.438-4.361-7.973-9.19s1.417-8.563,5.524-11.138A16.155,16.155,0,0,1,823.707.132c.774.084,1.542.226,2.308.34V6.151l-.228.121" transform="translate(-695.328 0.001)" fill="#a6a7b4"/>
      <path id="Tracé_119" data-name="Tracé 119" d="M529.838,3.883h10.728c-.2.2-.323.4-.5.481-.806.343-1.63.647-2.445.969A1.528,1.528,0,0,0,536.591,6.9c-.027,3.747-.1,7.493-.089,11.239a12.42,12.42,0,0,0,.389,2.875,4.3,4.3,0,0,0,3.693,3.486,14.208,14.208,0,0,0,3.982.106,4.969,4.969,0,0,0,4.232-4.89c.148-2.581.086-5.176.064-7.764-.014-1.734-.151-3.466-.173-5.2a1.708,1.708,0,0,0-1.374-1.814c-.577-.166-1.15-.348-1.712-.555A3.151,3.151,0,0,1,545,3.926h8.923a3.016,3.016,0,0,1-.538.451c-.5.235-1.017.438-1.532.643a1.561,1.561,0,0,0-1.05,1.616c0,3.446.021,6.894-.066,10.339a19.231,19.231,0,0,1-.529,4.177,6.635,6.635,0,0,1-5.589,5.2,13.22,13.22,0,0,1-5.978-.207,6.478,6.478,0,0,1-5.047-6.633c-.074-3.676-.02-7.355-.04-11.033,0-.691-.07-1.384-.141-2.072a1.357,1.357,0,0,0-.93-1.187c-.711-.274-1.425-.541-2.123-.846-.185-.081-.314-.29-.519-.489" transform="translate(-456.278 -3.344)" fill="#a6a7b4"/>
      <path id="Tracé_120" data-name="Tracé 120" d="M396.77,14.832a3.094,3.094,0,0,0-.045.39c.018,2.359.023,4.718.068,7.077.021,1.122.107,1.189,1.186,1.56.72.248,1.448.478,2.156.756.186.073.313.3.493.481H389.882c.185-.168.309-.359.48-.424.755-.287,1.515-.568,2.29-.792a1.379,1.379,0,0,0,1.081-1.418c.018-.439.063-.878.064-1.316q.006-7.043,0-14.086c0-.3-.018-.6-.032-.9-.077-1.611-.077-1.612-1.614-2.135-.59-.2-1.189-.377-1.77-.6a1.913,1.913,0,0,1-.469-.391l.111-.2a22.194,22.194,0,0,0,2.251.187c2.38-.034,4.76-.1,7.139-.193a11.034,11.034,0,0,1,5.024.766,5.348,5.348,0,0,1,3.46,4.923,5.229,5.229,0,0,1-3.149,5.243,10.988,10.988,0,0,1-5.035,1.079c-.966,0-1.931,0-2.941,0m.022-1.073a34.369,34.369,0,0,0,4.24-.35,4.36,4.36,0,0,0,3.522-4.456c-.01-2.441-1.19-4.168-3.4-4.579a33.572,33.572,0,0,0-4.363-.26Z" transform="translate(-335.753 -2.415)" fill="#a6a7b4"/>
      <path id="Tracé_121" data-name="Tracé 121" d="M64.937,54.068c-4.2,5.574-9.713,8.809-16.751,8.9-7.269.091-12.967-3.163-17.315-8.9q17.046,9.4,34.066,0" transform="translate(-26.585 -46.561)" fill="#a6a7b4"/>
      <path id="Tracé_122" data-name="Tracé 122" d="M721.319,3.237c-.184.17-.315.377-.5.446-.756.285-1.521.549-2.294.779a1.007,1.007,0,0,0-.836.964c-.016.253-.078.5-.079.757q-.012,8.114-.006,16.228c0,1.23.211,1.451,1.368,1.834.613.2,1.232.393,1.832.63.194.076.335.285.557.484H710.669c.167-.164.293-.382.476-.453.753-.291,1.519-.553,2.289-.794a1.186,1.186,0,0,0,.908-1.092,5.724,5.724,0,0,0,.058-.62q0-8.01-.015-16.02c0-.253-.068-.505-.071-.758a1.186,1.186,0,0,0-1-1.22c-.775-.224-1.538-.493-2.3-.774-.126-.047-.192-.253-.285-.385.135-.05.275-.154.4-.143a56.445,56.445,0,0,0,9.972-.006c.018,0,.038.024.215.144" transform="translate(-612.003 -2.663)" fill="#a6a7b4"/>
      <path id="Tracé_123" data-name="Tracé 123" d="M64.909,26.864a27.932,27.932,0,0,0,24.46.079c-.729,2.484-6.214,5.86-10.337,6.362a15.017,15.017,0,0,1-14.123-6.441" transform="translate(-55.897 -23.134)" fill="#a6a7b4"/>
      <path id="Tracé_124" data-name="Tracé 124" d="M110.333,2.758a9.54,9.54,0,0,1-8.147,4.473A9.615,9.615,0,0,1,93.718,2.76a24.283,24.283,0,0,0,16.615,0" transform="translate(-80.707 -2.375)" fill="#a6a7b4"/>
    </g>
  </g>
</svg>
