<svg xmlns="http://www.w3.org/2000/svg" xmlns:xlink="http://www.w3.org/1999/xlink" width="40.124" height="54.776" viewBox="0 0 40.124 54.776">
  <defs>
    <clipPath id="clip-path">
      <rect id="Rectangle_19" data-name="Rectangle 19" width="40.124" height="54.776" fill="#a6a7b4"/>
    </clipPath>
  </defs>
  <g id="Groupe_59" data-name="Groupe 59" transform="translate(0)">
    <path id="Tracé_174" data-name="Tracé 174" d="M.266,70.256V71.85h2.7v3.1H.266v1.594H7.5V74.945H4.373v-3.1H7.5V70.256Z" transform="translate(-0.083 -21.763)" fill="#a6a7b4"/>
    <g id="Groupe_25" data-name="Groupe 25" transform="translate(0 0)">
      <g id="Groupe_24" data-name="Groupe 24" clip-path="url(#clip-path)">
        <path id="Tracé_175" data-name="Tracé 175" d="M3.8,64.187A4.089,4.089,0,0,1,2.227,63.9a3.454,3.454,0,0,1-1.2-.812,3.591,3.591,0,0,1-.761-1.236,4.73,4.73,0,0,1,0-3.126,3.6,3.6,0,0,1,.761-1.236,3.464,3.464,0,0,1,1.2-.812A4.089,4.089,0,0,1,3.8,56.382a4.092,4.092,0,0,1,1.574.291,3.448,3.448,0,0,1,1.2.812,3.588,3.588,0,0,1,.761,1.236,4.741,4.741,0,0,1,0,3.126,3.582,3.582,0,0,1-.761,1.236,3.439,3.439,0,0,1-1.2.812,4.092,4.092,0,0,1-1.574.291m0-1.654a2.655,2.655,0,0,0,.935-.159,2.128,2.128,0,0,0,.735-.455,2.062,2.062,0,0,0,.485-.71,2.544,2.544,0,0,0,0-1.849,2.062,2.062,0,0,0-.485-.71,2.139,2.139,0,0,0-.735-.455,2.654,2.654,0,0,0-.935-.158,2.66,2.66,0,0,0-.929.158,2.14,2.14,0,0,0-.741.455,2.07,2.07,0,0,0-.485.71,2.554,2.554,0,0,0,0,1.849,2.07,2.07,0,0,0,.485.71,2.13,2.13,0,0,0,.741.455,2.661,2.661,0,0,0,.929.159" transform="translate(0 -17.465)" fill="#a6a7b4"/>
        <path id="Tracé_176" data-name="Tracé 176" d="M1.676,50.144v2.063H.266v-5.72h1.41v2.063H7.5v1.594Z" transform="translate(-0.082 -14.4)" fill="#a6a7b4"/>
        <path id="Tracé_177" data-name="Tracé 177" d="M.266,41.942V37.029H1.738v3.32H3.086V37.212H4.557v3.136H6.028v-3.5H7.5v5.1Z" transform="translate(-0.082 -11.413)" fill="#a6a7b4"/>
        <path id="Tracé_178" data-name="Tracé 178" d="M.266,31.867V30.273H6.028V27.32H7.5v4.547Z" transform="translate(-0.082 -8.463)" fill="#a6a7b4"/>
        <path id="Tracé_179" data-name="Tracé 179" d="M1.951,19.372a1.14,1.14,0,0,0-.362.526,1.9,1.9,0,0,0-.117.629,1.624,1.624,0,0,0,.041.358,1.4,1.4,0,0,0,.127.347.748.748,0,0,0,.231.265.581.581,0,0,0,.347.1.575.575,0,0,0,.5-.246,2.3,2.3,0,0,0,.3-.618q.122-.373.245-.8a3.3,3.3,0,0,1,.348-.8,1.9,1.9,0,0,1,.6-.618,1.841,1.841,0,0,1,1.011-.245,2.32,2.32,0,0,1,1.052.225,2.131,2.131,0,0,1,.746.608,2.574,2.574,0,0,1,.439.888,4.076,4.076,0,0,1-.072,2.375,3.27,3.27,0,0,1-.694,1.124L5.445,22.355a1.646,1.646,0,0,0,.505-.618,1.769,1.769,0,0,0,.179-.771,1.727,1.727,0,0,0-.046-.393,1.3,1.3,0,0,0-.138-.358.769.769,0,0,0-.235-.255.587.587,0,0,0-.337-.1.615.615,0,0,0-.516.25,2.359,2.359,0,0,0-.322.629c-.088.252-.177.525-.265.817a3.677,3.677,0,0,1-.358.817A1.972,1.972,0,0,1,3.321,23a1.7,1.7,0,0,1-.971.25,2.16,2.16,0,0,1-1.021-.23,2.218,2.218,0,0,1-.736-.613,2.649,2.649,0,0,1-.445-.884A3.643,3.643,0,0,1,0,20.5a4.075,4.075,0,0,1,.174-1.184,2.73,2.73,0,0,1,.582-1.032Z" transform="translate(0 -5.659)" fill="#a6a7b4"/>
        <path id="Tracé_180" data-name="Tracé 180" d="M15.864,0h1.83l1.8,4.77h.021L21.343,0H23.06l-3,7.279H18.773Z" transform="translate(-4.914)" fill="#a6a7b4"/>
        <rect id="Rectangle_18" data-name="Rectangle 18" width="1.604" height="7.279" transform="translate(19.577)" fill="#a6a7b4"/>
        <path id="Tracé_181" data-name="Tracé 181" d="M33.475,0h1.6V5.8h2.972V7.279H33.475Z" transform="translate(-10.37)" fill="#a6a7b4"/>
        <path id="Tracé_182" data-name="Tracé 182" d="M42.087,0h1.6V5.8h2.972V7.279H42.087Z" transform="translate(-13.037)" fill="#a6a7b4"/>
        <path id="Tracé_183" data-name="Tracé 183" d="M50.7,0h4.945V1.481H52.3V2.838H55.46V4.318H52.3V5.8h3.526V7.279H50.7Z" transform="translate(-15.705)" fill="#a6a7b4"/>
        <path id="Tracé_184" data-name="Tracé 184" d="M.266,4.818H2.953v.8H1.137v.737H2.852v.8H1.137v.8H3.053v.8H.266Z" transform="translate(-0.082 -1.492)" fill="#a6a7b4"/>
        <path id="Tracé_185" data-name="Tracé 185" d="M5.315,4.818H6.5L8.18,7.566h.012V4.818h.871V8.772H7.923L6.2,5.957H6.186V8.772H5.315Z" transform="translate(-1.647 -1.492)" fill="#a6a7b4"/>
      </g>
    </g>
  </g>
</svg>
