<svg xmlns="http://www.w3.org/2000/svg" xmlns:xlink="http://www.w3.org/1999/xlink" width="53.8" height="53.801" viewBox="0 0 53.8 53.801">
  <defs>
    <clipPath id="clip-path">
      <rect id="Rectangle_25" data-name="Rectangle 25" width="53.8" height="53.801" fill="#a6a7b4"/>
    </clipPath>
  </defs>
  <g id="Groupe_52" data-name="Groupe 52" clip-path="url(#clip-path)">
    <path id="Tracé_203" data-name="Tracé 203" d="M49.072,125.258a1.5,1.5,0,0,0,1.379,0,1.455,1.455,0,0,0,.481-.439,1.915,1.915,0,0,0,.277-.611,2.739,2.739,0,0,0,0-1.384,1.85,1.85,0,0,0-.277-.611,1.476,1.476,0,0,0-.481-.434,1.5,1.5,0,0,0-1.379,0,1.473,1.473,0,0,0-.48.434,1.841,1.841,0,0,0-.277.611,2.74,2.74,0,0,0,0,1.384,1.906,1.906,0,0,0,.277.611,1.452,1.452,0,0,0,.48.439" transform="translate(-37.827 -95.389)" fill="#a6a7b4"/>
    <path id="Tracé_204" data-name="Tracé 204" d="M56.812,210.267a1.354,1.354,0,0,0-.418-.313,1.233,1.233,0,0,0-.548-.12,1.43,1.43,0,0,0-.569.11,1.3,1.3,0,0,0-.439.3,1.5,1.5,0,0,0-.292.454,1.581,1.581,0,0,0-.12.564H57.2a1.924,1.924,0,0,0-.12-.543,1.451,1.451,0,0,0-.271-.454" transform="translate(-42.689 -164.587)" fill="#a6a7b4"/>
    <path id="Tracé_205" data-name="Tracé 205" d="M156.393,166.158a1.356,1.356,0,0,0-.418-.313,1.236,1.236,0,0,0-.548-.12,1.43,1.43,0,0,0-.569.11,1.3,1.3,0,0,0-.439.3,1.5,1.5,0,0,0-.292.454,1.579,1.579,0,0,0-.12.564h2.778a1.919,1.919,0,0,0-.12-.543,1.456,1.456,0,0,0-.271-.454" transform="translate(-120.799 -129.989)" fill="#a6a7b4"/>
    <path id="Tracé_206" data-name="Tracé 206" d="M126.247,210.436a1.473,1.473,0,0,0-.48-.433,1.505,1.505,0,0,0-1.379,0,1.471,1.471,0,0,0-.48.433,1.844,1.844,0,0,0-.277.611,2.745,2.745,0,0,0,0,1.384,1.911,1.911,0,0,0,.277.611,1.451,1.451,0,0,0,.48.439,1.507,1.507,0,0,0,1.379,0,1.453,1.453,0,0,0,.48-.439,1.916,1.916,0,0,0,.277-.611,2.738,2.738,0,0,0,0-1.384,1.848,1.848,0,0,0-.277-.611" transform="translate(-96.903 -164.588)" fill="#a6a7b4"/>
    <path id="Tracé_207" data-name="Tracé 207" d="M134.54,132.2a1.281,1.281,0,0,0,.355.11,2.228,2.228,0,0,0,.35.031,1.933,1.933,0,0,0,.428-.052,1.419,1.419,0,0,0,.433-.178,1.142,1.142,0,0,0,.34-.318.807.807,0,0,0,.136-.475v-.888a1.443,1.443,0,0,1-.668.214q-.4.036-.794.11a2.538,2.538,0,0,0-.365.089,1.1,1.1,0,0,0-.313.156.687.687,0,0,0-.214.261.892.892,0,0,0-.078.391.5.5,0,0,0,.115.334.833.833,0,0,0,.277.214" transform="translate(-105.222 -102.303)" fill="#a6a7b4"/>
    <path id="Tracé_208" data-name="Tracé 208" d="M105.06,124.852a1.375,1.375,0,0,0,.465.418,1.356,1.356,0,0,0,.668.157,1.337,1.337,0,0,0,.684-.167,1.422,1.422,0,0,0,.47-.439,1.991,1.991,0,0,0,.271-.611,2.736,2.736,0,0,0,.089-.695,2.182,2.182,0,0,0-.4-1.4,1.325,1.325,0,0,0-1.091-.5,1.347,1.347,0,0,0-.7.172,1.447,1.447,0,0,0-.47.449,1.863,1.863,0,0,0-.261.627,3.256,3.256,0,0,0-.078.715,2.625,2.625,0,0,0,.089.679,1.859,1.859,0,0,0,.271.6" transform="translate(-82.124 -95.39)" fill="#a6a7b4"/>
    <path id="Tracé_209" data-name="Tracé 209" d="M189.439,124.82a1.452,1.452,0,0,0,.48.439,1.507,1.507,0,0,0,1.379,0,1.452,1.452,0,0,0,.48-.439,1.913,1.913,0,0,0,.277-.611,2.74,2.74,0,0,0,0-1.384,1.848,1.848,0,0,0-.277-.611,1.474,1.474,0,0,0-.48-.433,1.505,1.505,0,0,0-1.379,0,1.474,1.474,0,0,0-.48.433,1.848,1.848,0,0,0-.277.611,2.745,2.745,0,0,0,0,1.384,1.912,1.912,0,0,0,.277.611" transform="translate(-148.304 -95.39)" fill="#a6a7b4"/>
    <path id="Tracé_210" data-name="Tracé 210" d="M206.668,166.158a1.354,1.354,0,0,0-.418-.313,1.236,1.236,0,0,0-.548-.12,1.431,1.431,0,0,0-.569.11,1.3,1.3,0,0,0-.439.3,1.5,1.5,0,0,0-.292.454,1.583,1.583,0,0,0-.12.564h2.778a1.929,1.929,0,0,0-.12-.543,1.458,1.458,0,0,0-.272-.454" transform="translate(-160.233 -129.989)" fill="#a6a7b4"/>
    <path id="Tracé_211" data-name="Tracé 211" d="M0,53.8H53.8V0H0ZM39.762,26.986a2.522,2.522,0,0,1,.533-.9,2.462,2.462,0,0,1,.856-.59,3.217,3.217,0,0,1,2.308,0,2.465,2.465,0,0,1,.856.59,2.529,2.529,0,0,1,.533.9,3.431,3.431,0,0,1,.183,1.138,3.466,3.466,0,0,1-.183,1.149,2.523,2.523,0,0,1-.533.9,2.457,2.457,0,0,1-.856.59,3.217,3.217,0,0,1-2.308,0,2.454,2.454,0,0,1-.856-.59,2.517,2.517,0,0,1-.533-.9,3.455,3.455,0,0,1-.183-1.149,3.42,3.42,0,0,1,.183-1.138m2.063,13.355H40.634V32.884h1.191ZM37.344,23.372h1.191V24.5H37.344Zm1.964,16.969H38.117V32.884h1.191ZM33.292,25.43h.9V23.811H35.38V25.43h1.076v.888H35.38V29.2a2.894,2.894,0,0,0,.016.324.558.558,0,0,0,.073.23.347.347,0,0,0,.172.141.844.844,0,0,0,.313.047q.125,0,.251-.005a1.212,1.212,0,0,0,.251-.036v.919l-.386.042a3.537,3.537,0,0,1-.387.021,2.647,2.647,0,0,1-.757-.089,1.011,1.011,0,0,1-.449-.261.9.9,0,0,1-.219-.433,3.247,3.247,0,0,1-.068-.6V26.318h-.9Zm-5.373,3.154a1.356,1.356,0,0,1,.48-.491,2.166,2.166,0,0,1,.668-.256q.371-.079.747-.12a6.092,6.092,0,0,1,.616-.089,2.877,2.877,0,0,0,.517-.089.79.79,0,0,0,.355-.193.532.532,0,0,0,.131-.392.611.611,0,0,0-.11-.376.737.737,0,0,0-.272-.224,1.176,1.176,0,0,0-.36-.1,2.915,2.915,0,0,0-.376-.026,1.5,1.5,0,0,0-.825.209.814.814,0,0,0-.365.648h-1.19a1.791,1.791,0,0,1,.251-.867,1.732,1.732,0,0,1,.559-.554,2.287,2.287,0,0,1,.768-.293,4.59,4.59,0,0,1,.877-.083,3.712,3.712,0,0,1,.783.083,2.228,2.228,0,0,1,.695.272,1.5,1.5,0,0,1,.5.486,1.333,1.333,0,0,1,.188.726v2.778a.631.631,0,0,0,.057.313.242.242,0,0,0,.225.094h.125a.777.777,0,0,0,.167-.021v.825c-.042.014-.1.03-.162.047s-.134.033-.2.047-.14.024-.209.031-.129.01-.177.01a1.15,1.15,0,0,1-.606-.146.727.727,0,0,1-.313-.512,2.1,2.1,0,0,1-.872.5,3.43,3.43,0,0,1-1,.157,2.451,2.451,0,0,1-.7-.1,1.83,1.83,0,0,1-.59-.293,1.4,1.4,0,0,1-.407-.491,1.509,1.509,0,0,1-.152-.694,1.6,1.6,0,0,1,.183-.815m-6.334-1.755a2.53,2.53,0,0,1,.527-.877,2.043,2.043,0,0,1,.752-.507,2.4,2.4,0,0,1,.862-.162,2.89,2.89,0,0,1,.512.047,2.253,2.253,0,0,1,.5.152,1.981,1.981,0,0,1,.444.266,1.476,1.476,0,0,1,.34.381h.021V23.372h1.191V30.83H25.6V30.1h-.021a1.413,1.413,0,0,1-.7.673,2.37,2.37,0,0,1-.971.2,2.58,2.58,0,0,1-1.112-.224,2.219,2.219,0,0,1-.789-.611,2.613,2.613,0,0,1-.47-.914,3.966,3.966,0,0,1-.157-1.133,3.62,3.62,0,0,1,.2-1.264m.355,8.112v.888H20.864v2.882a2.847,2.847,0,0,0,.016.324.554.554,0,0,0,.073.23.347.347,0,0,0,.172.141.844.844,0,0,0,.313.047c.083,0,.167,0,.251-.005a1.242,1.242,0,0,0,.251-.036v.919l-.386.042a3.482,3.482,0,0,1-.386.021,2.646,2.646,0,0,1-.757-.089,1.009,1.009,0,0,1-.449-.261.9.9,0,0,1-.219-.433,3.244,3.244,0,0,1-.068-.6V35.83h-.9v-.888h.9V33.323h1.191v1.619ZM15.652,25.43H16.78v.794l.021.021a2,2,0,0,1,.71-.705,1.894,1.894,0,0,1,.971-.256,2.019,2.019,0,0,1,1.4.46,1.759,1.759,0,0,1,.512,1.379V30.83H19.2V27.435a1.468,1.468,0,0,0-.271-.924.986.986,0,0,0-.783-.287,1.294,1.294,0,0,0-.543.11,1.173,1.173,0,0,0-.407.3,1.42,1.42,0,0,0-.261.454,1.619,1.619,0,0,0-.094.554V30.83H15.652Zm2.371,14.911h-1.19V32.884h1.19Zm-3.666-.752a1.636,1.636,0,0,1-.653.653,1.775,1.775,0,0,1-.883.246,1.982,1.982,0,0,1-1.54-.528,2.314,2.314,0,0,1-.475-1.592V34.942H12v3.311a1.463,1.463,0,0,0,.271,1,.988.988,0,0,0,.762.292,1.5,1.5,0,0,0,.627-.115,1.108,1.108,0,0,0,.407-.308,1.181,1.181,0,0,0,.224-.465,2.4,2.4,0,0,0,.068-.585V34.942h1.19v5.4h-1.17v-.752ZM3.433,23.372H8.582V24.5H4.738v1.953H8.112v1.065H4.738V30.83H3.433ZM9.428,49.853H8.049L4.655,44.37H4.623v5.483H3.381V42.4H4.759l3.4,5.494h.021V42.4H9.428ZM9.5,38.722a3,3,0,0,1-.663.955,2.931,2.931,0,0,1-.982.622,3.4,3.4,0,0,1-1.243.219,3.519,3.519,0,0,1-1.5-.308,3.3,3.3,0,0,1-1.123-.841,3.759,3.759,0,0,1-.705-1.243,4.764,4.764,0,0,1,0-3.018,3.76,3.76,0,0,1,.705-1.243,3.359,3.359,0,0,1,1.123-.846,3.469,3.469,0,0,1,1.5-.313,3.955,3.955,0,0,1,1.18.172,3.055,3.055,0,0,1,.976.5,2.605,2.605,0,0,1,.684.8,2.778,2.778,0,0,1,.324,1.076H8.467a2.663,2.663,0,0,0-.23-.6,1.636,1.636,0,0,0-.914-.778,2.126,2.126,0,0,0-.715-.11,2.091,2.091,0,0,0-1.029.24,2.015,2.015,0,0,0-.7.642,2.9,2.9,0,0,0-.4.914,4.239,4.239,0,0,0,0,2.089,2.889,2.889,0,0,0,.4.914,2.013,2.013,0,0,0,.7.642,2.086,2.086,0,0,0,1.029.24,1.853,1.853,0,0,0,.773-.151,1.717,1.717,0,0,0,.574-.418,1.967,1.967,0,0,0,.376-.621,2.978,2.978,0,0,0,.177-.762H9.783A3.536,3.536,0,0,1,9.5,38.722m-.1-9.449a3.46,3.46,0,0,1-.183-1.149,3.426,3.426,0,0,1,.183-1.138,2.525,2.525,0,0,1,.533-.9,2.464,2.464,0,0,1,.856-.59,3.217,3.217,0,0,1,2.308,0,2.468,2.468,0,0,1,.856.59,2.532,2.532,0,0,1,.533.9,3.431,3.431,0,0,1,.183,1.138,3.466,3.466,0,0,1-.183,1.149,2.526,2.526,0,0,1-.533.9,2.46,2.46,0,0,1-.856.59,3.217,3.217,0,0,1-2.308,0,2.456,2.456,0,0,1-.856-.59,2.52,2.52,0,0,1-.533-.9M15.7,47.461H11.736a2.077,2.077,0,0,0,.089.606,1.487,1.487,0,0,0,.267.512,1.279,1.279,0,0,0,.449.35,1.481,1.481,0,0,0,.648.131,1.43,1.43,0,0,0,.841-.224,1.326,1.326,0,0,0,.475-.674h1.128a2.238,2.238,0,0,1-.877,1.363,2.389,2.389,0,0,1-.726.355,2.924,2.924,0,0,1-.841.12,2.858,2.858,0,0,1-1.128-.209,2.324,2.324,0,0,1-.83-.585,2.478,2.478,0,0,1-.512-.9,3.641,3.641,0,0,1-.173-1.149,3.244,3.244,0,0,1,.183-1.091,2.789,2.789,0,0,1,.522-.909,2.452,2.452,0,0,1,1.906-.851,2.422,2.422,0,0,1,1.144.266,2.511,2.511,0,0,1,.841.705,2.859,2.859,0,0,1,.486,1.008,3.1,3.1,0,0,1,.078,1.175m8.742,2.392H23.255V46.7q0-.323-.021-.59a1.206,1.206,0,0,0-.12-.46.683.683,0,0,0-.3-.3,1.18,1.18,0,0,0-.543-.1,1.008,1.008,0,0,0-.877.376,1.8,1.8,0,0,0-.272,1.065v3.165h-1.19V46.386a1.469,1.469,0,0,0-.2-.851.856.856,0,0,0-.747-.287,1.109,1.109,0,0,0-.82.365,1.358,1.358,0,0,0-.261.438,1.668,1.668,0,0,0-.1.6v3.206h-1.19v-5.4h1.128v.752h.031a3.062,3.062,0,0,1,.292-.365,1.6,1.6,0,0,1,.35-.282,1.8,1.8,0,0,1,.444-.183,2.213,2.213,0,0,1,.574-.068,1.957,1.957,0,0,1,.914.219,1.241,1.241,0,0,1,.6.679,2.408,2.408,0,0,1,.7-.658,1.888,1.888,0,0,1,.992-.24,1.952,1.952,0,0,1,1.332.418,1.784,1.784,0,0,1,.475,1.4ZM23.271,39.96a2.314,2.314,0,0,1-.475-1.592V34.942h1.191v3.311a1.463,1.463,0,0,0,.271,1,.988.988,0,0,0,.762.292,1.505,1.505,0,0,0,.627-.115,1.108,1.108,0,0,0,.407-.308,1.181,1.181,0,0,0,.224-.465,2.4,2.4,0,0,0,.068-.585V34.942h1.19v5.4h-1.17v-.752h-.021a1.636,1.636,0,0,1-.653.653,1.775,1.775,0,0,1-.883.246,1.982,1.982,0,0,1-1.54-.528M30.717,48.3a2.524,2.524,0,0,1-.533.9,2.457,2.457,0,0,1-.856.59,3.217,3.217,0,0,1-2.308,0,2.454,2.454,0,0,1-.856-.59,2.521,2.521,0,0,1-.533-.9,3.668,3.668,0,0,1,0-2.287,2.524,2.524,0,0,1,.533-.9,2.459,2.459,0,0,1,.856-.59,3.217,3.217,0,0,1,2.308,0,2.462,2.462,0,0,1,.856.59,2.527,2.527,0,0,1,.533.9,3.672,3.672,0,0,1,0,2.287m.726-12.373a1.369,1.369,0,0,0-.569.12,1.3,1.3,0,0,0-.465.355,1.739,1.739,0,0,0-.314.58,2.509,2.509,0,0,0-.115.794v2.569H28.79v-5.4h1.118v1.044h.021a1.205,1.205,0,0,1,.2-.428,1.983,1.983,0,0,1,.365-.381,1.838,1.838,0,0,1,.475-.277,1.421,1.421,0,0,1,.533-.1,2.606,2.606,0,0,1,.287.01l.162.021v1.149q-.125-.021-.256-.036a2.123,2.123,0,0,0-.256-.016m5.191,13.93h-1.17V49.1h-.021a1.633,1.633,0,0,1-.653.653,1.772,1.772,0,0,1-.882.246,1.982,1.982,0,0,1-1.54-.527,2.315,2.315,0,0,1-.475-1.593V44.453h1.19v3.311a1.464,1.464,0,0,0,.271,1,.989.989,0,0,0,.763.293,1.5,1.5,0,0,0,.626-.115,1.1,1.1,0,0,0,.407-.308,1.181,1.181,0,0,0,.225-.465,2.4,2.4,0,0,0,.068-.585V44.453h1.19Zm.543-11.9H33.208a2.072,2.072,0,0,0,.089.606,1.492,1.492,0,0,0,.266.512,1.286,1.286,0,0,0,.449.35,1.48,1.48,0,0,0,.648.13,1.43,1.43,0,0,0,.841-.224,1.327,1.327,0,0,0,.475-.674H37.1a2.237,2.237,0,0,1-.877,1.363,2.383,2.383,0,0,1-.726.355,2.917,2.917,0,0,1-.841.12,2.855,2.855,0,0,1-1.128-.209,2.323,2.323,0,0,1-.83-.585,2.482,2.482,0,0,1-.512-.9,3.649,3.649,0,0,1-.172-1.149,3.251,3.251,0,0,1,.183-1.091,2.794,2.794,0,0,1,.522-.909,2.45,2.45,0,0,1,1.906-.851,2.422,2.422,0,0,1,1.144.266,2.513,2.513,0,0,1,.841.705,2.858,2.858,0,0,1,.486,1.008,3.091,3.091,0,0,1,.078,1.175m.167-12.52h1.191v5.4H37.344Zm3.708,20.057q-.126-.021-.256-.037a2.167,2.167,0,0,0-.256-.016,1.368,1.368,0,0,0-.569.12,1.309,1.309,0,0,0-.465.355,1.743,1.743,0,0,0-.313.58,2.5,2.5,0,0,0-.115.794v2.569h-1.19v-5.4H39V45.5h.021a1.2,1.2,0,0,1,.2-.428,1.983,1.983,0,0,1,.365-.381,1.84,1.84,0,0,1,.475-.277,1.422,1.422,0,0,1,.533-.1,2.588,2.588,0,0,1,.287.011l.162.021Zm4.8,3.572a1.734,1.734,0,0,1-.569.543,2.586,2.586,0,0,1-.778.3,3.933,3.933,0,0,1-.846.094,3.682,3.682,0,0,1-.945-.115,2.2,2.2,0,0,1-.752-.35,1.69,1.69,0,0,1-.5-.585,1.861,1.861,0,0,1-.193-.831h1.191a.9.9,0,0,0,.4.731,1.561,1.561,0,0,0,.825.209,3.176,3.176,0,0,0,.381-.026,1.666,1.666,0,0,0,.4-.1.756.756,0,0,0,.308-.214.514.514,0,0,0,.11-.37.527.527,0,0,0-.167-.376,1.161,1.161,0,0,0-.4-.235,3.914,3.914,0,0,0-.559-.152q-.313-.062-.637-.136a5.966,5.966,0,0,1-.642-.177,2.069,2.069,0,0,1-.554-.282,1.3,1.3,0,0,1-.392-.454,1.451,1.451,0,0,1-.146-.684,1.229,1.229,0,0,1,.214-.736,1.644,1.644,0,0,1,.543-.48,2.364,2.364,0,0,1,.731-.256,4.3,4.3,0,0,1,.768-.073,3.506,3.506,0,0,1,.8.089,2.172,2.172,0,0,1,.689.287,1.685,1.685,0,0,1,.512.517,1.79,1.79,0,0,1,.256.767H44.655a.742.742,0,0,0-.392-.574,1.626,1.626,0,0,0-.7-.146,2.546,2.546,0,0,0-.3.021,1.385,1.385,0,0,0-.324.078.681.681,0,0,0-.256.167.4.4,0,0,0-.1.287.454.454,0,0,0,.151.355,1.192,1.192,0,0,0,.4.224,3.878,3.878,0,0,0,.559.152q.313.062.648.136t.637.177a2.064,2.064,0,0,1,.559.282,1.3,1.3,0,0,1,.548,1.117,1.453,1.453,0,0,1-.22.815m2.162-11.11H44.049a2.072,2.072,0,0,0,.089.606,1.492,1.492,0,0,0,.266.512,1.286,1.286,0,0,0,.449.35,1.48,1.48,0,0,0,.648.13,1.43,1.43,0,0,0,.841-.224,1.327,1.327,0,0,0,.475-.674h1.128a2.238,2.238,0,0,1-.877,1.363,2.383,2.383,0,0,1-.726.355,2.917,2.917,0,0,1-.841.12,2.854,2.854,0,0,1-1.128-.209,2.324,2.324,0,0,1-.83-.585,2.482,2.482,0,0,1-.512-.9,3.649,3.649,0,0,1-.172-1.149,3.251,3.251,0,0,1,.183-1.091,2.794,2.794,0,0,1,.522-.909,2.45,2.45,0,0,1,1.906-.851,2.421,2.421,0,0,1,1.143.266,2.513,2.513,0,0,1,.841.705,2.857,2.857,0,0,1,.486,1.008,3.091,3.091,0,0,1,.078,1.175m2.747-7.12h-1.19V27.435a1.468,1.468,0,0,0-.272-.924.986.986,0,0,0-.783-.287,1.293,1.293,0,0,0-.543.11,1.174,1.174,0,0,0-.407.3,1.424,1.424,0,0,0-.261.454,1.619,1.619,0,0,0-.094.554V30.83h-1.19v-5.4H47.15v.794l.021.021a2,2,0,0,1,.71-.705,1.9,1.9,0,0,1,.971-.256,2.02,2.02,0,0,1,1.4.46,1.76,1.76,0,0,1,.512,1.379Z" fill="#a6a7b4"/>
  </g>
</svg>
