<svg id="Groupe_45" data-name="Groupe 45" xmlns="http://www.w3.org/2000/svg" xmlns:xlink="http://www.w3.org/1999/xlink" width="96.575" height="22.406" viewBox="0 0 96.575 22.406">
  <defs>
    <clipPath id="clip-path">
      <rect id="Rectangle_7" data-name="Rectangle 7" width="96.575" height="22.406" fill="#a6a7b4"/>
    </clipPath>
  </defs>
  <g id="Groupe_12" data-name="Groupe 12" transform="translate(0 0)" clip-path="url(#clip-path)">
    <path id="Tracé_125" data-name="Tracé 125" d="M686.35,3.554a1.89,1.89,0,0,0-.14.221q-2.647,5.772-5.29,11.545-1.465,3.2-2.941,6.39a.6.6,0,0,1-.338.256c-.211.068-.291-.108-.364-.269q-4.109-8.954-8.22-17.907a.456.456,0,0,0-.2-.227,2.827,2.827,0,0,0-.036.323c0,4.738-.008,9.476.007,14.213A11.016,11.016,0,0,0,669,20.026a1.535,1.535,0,0,0,1.5,1.362c.325.039.655.059.982.066.206,0,.246.1.246.281s-.077.241-.251.241q-3.139,0-6.278,0c-.183,0-.236-.082-.239-.253,0-.189.064-.259.257-.27.39-.023.781-.059,1.167-.12a1.444,1.444,0,0,0,1.232-1.14,5.473,5.473,0,0,0,.206-1.345q.021-7.935,0-15.871a3.875,3.875,0,0,0-.162-1.031A1.927,1.927,0,0,0,665.731.623c-.18-.007-.36-.02-.539-.03a.211.211,0,0,1-.213-.3A.343.343,0,0,1,665.235.1c1.689-.011,3.378,0,5.067-.011.216,0,.289.123.366.285q1.744,3.647,3.494,7.292,2.279,4.749,4.561,9.5c.048.1.109.194.2.352.209-.435.391-.8.563-1.174q3.379-7.292,6.757-14.584c.223-.481.436-.968.679-1.439a.457.457,0,0,1,.33-.216c1.636-.014,3.271-.009,4.907-.011.167,0,.287.021.288.237s-.12.228-.286.242a9.43,9.43,0,0,0-1.04.122,1.791,1.791,0,0,0-1.608,1.934c-.009.531,0,1.062,0,1.593q0,7.266.006,14.532a6.766,6.766,0,0,0,.14,1.323,1.541,1.541,0,0,0,1.447,1.308c.336.039.676.056,1.015.069.183.007.332,0,.332.26s-.142.261-.329.261q-3.171,0-6.342,0c-.669,0-1.339,0-2.008,0-.177,0-.4.074-.406-.247-.006-.341.233-.251.42-.27.4-.04.8-.065,1.2-.13a1.434,1.434,0,0,0,1.252-1.193,8.44,8.44,0,0,0,.2-1.668c.015-4.865.01-9.73.01-14.6,0-.1-.013-.2-.021-.3l-.072-.018" transform="translate(-622.577 -0.087)" fill="#a6a7b4"/>
    <path id="Tracé_126" data-name="Tracé 126" d="M1147.906,10.949c0-2.539.007-5.078-.006-7.616a8.221,8.221,0,0,0-.135-1.389,1.651,1.651,0,0,0-1.746-1.4c-.275-.019-.553-.021-.823-.067a.313.313,0,0,1-.2-.226c0-.079.121-.169.207-.23.042-.03.123-.007.187-.007h8.031c.074,0,.164-.024.219.008.083.049.2.144.2.209a.328.328,0,0,1-.188.244c-.375.062-.759.071-1.135.129a1.59,1.59,0,0,0-1.46,1.414,5.432,5.432,0,0,0-.125.944q-.05,3.278-.073,6.557a.654.654,0,0,0,.608.7,4.749,4.749,0,0,0,.7.057q4.542.006,9.083,0a5.771,5.771,0,0,0,.759-.058.612.612,0,0,0,.566-.52,2.519,2.519,0,0,0,.061-.472c0-1.859,0-3.718-.013-5.577a11.744,11.744,0,0,0-.108-1.393,1.69,1.69,0,0,0-1.834-1.712,6.407,6.407,0,0,1-.759-.065.317.317,0,0,1-.21-.225c0-.078.126-.166.21-.232.033-.026.1-.006.156-.006h8.126c.032,0,.063,0,.1,0,.174-.011.283.035.28.244,0,.191-.1.221-.262.233-.38.028-.76.062-1.137.114a1.512,1.512,0,0,0-1.39,1.289,9.972,9.972,0,0,0-.191,1.829q-.019,6.979.007,13.958a15,15,0,0,0,.18,2.309,1.524,1.524,0,0,0,1.561,1.322c.339.019.677.051,1.015.062.2.007.244.132.2.275a.579.579,0,0,1-.209.238c-.031.026-.1,0-.155,0q-4.063,0-8.127,0a.491.491,0,0,1-.356-.113c-.131-.19.008-.383.25-.4.349-.023.7-.025,1.045-.082a1.654,1.654,0,0,0,1.492-1.579,13.28,13.28,0,0,0,.127-1.615c.015-1.923.006-3.845.005-5.768a2.222,2.222,0,0,0-.025-.38c-.109-.61-.3-.767-.921-.767q-4.908,0-9.815,0c-.724,0-.955.23-.955.95,0,2.125-.011,4.249.009,6.373a7.546,7.546,0,0,0,.188,1.572,1.509,1.509,0,0,0,1.5,1.232c.328.022.655.055.983.061.2,0,.255.085.257.271,0,.2-.092.251-.274.251q-4.159,0-8.318,0c-.2,0-.29-.049-.29-.268s.125-.248.3-.255a8.637,8.637,0,0,0,1.045-.079,1.749,1.749,0,0,0,1.519-1.8c.04-.592.064-1.186.067-1.779.007-2.252,0-4.5,0-6.756Z" transform="translate(-1071.993 0)" fill="#a6a7b4"/>
    <path id="Tracé_127" data-name="Tracé 127" d="M274.9,17.934c.081-.159.139-.255.18-.357q2.656-6.529,5.3-13.062a6.774,6.774,0,0,0,.47-1.741,1.815,1.815,0,0,0-1.6-2.147c-.073-.013-.175,0-.214-.039a.62.62,0,0,1-.172-.313c-.006-.049.147-.169.229-.17q2.693-.015,5.386,0a.293.293,0,0,1,.224.176c.009.084-.077.245-.146.259A3.376,3.376,0,0,0,282.37,2.4a23.993,23.993,0,0,0-1.245,2.643Q278.4,11.6,275.707,18.163q-.825,2-1.653,4c-.061.146-.083.327-.324.333s-.287-.173-.357-.334q-3.895-8.977-7.792-17.954c-.317-.729-.651-1.453-1.019-2.157A2.357,2.357,0,0,0,262.436.613c-.062,0-.125-.035-.187-.036-.183,0-.231-.1-.229-.266,0-.2.126-.215.277-.215q1.068,0,2.135,0,2.852,0,5.7,0c.171,0,.378-.056.374.244,0,.269-.185.243-.364.287a4.444,4.444,0,0,0-1.1.352,1.394,1.394,0,0,0-.677,1.438,9.081,9.081,0,0,0,.986,2.971q2.672,6.074,5.353,12.145c.05.113.109.222.2.4" transform="translate(-245.32 -0.089)" fill="#a6a7b4"/>
    <path id="Tracé_128" data-name="Tracé 128" d="M18.323,16.075l.315.085c-.02.1-.03.189-.057.274-.556,1.758-1.118,3.515-1.666,5.276a.41.41,0,0,1-.463.35Q8.405,22.045.36,22.051c-.16,0-.357.056-.359-.225,0-.193.043-.294.264-.3a7.468,7.468,0,0,0,.887-.058,1.7,1.7,0,0,0,1.715-1.767c.041-.5.067-.995.068-1.492q.007-7.615,0-15.231A4.538,4.538,0,0,0,2.8,1.917,1.387,1.387,0,0,0,1.772.839,12.855,12.855,0,0,0,.274.59C.1.567,0,.541,0,.335,0,.112.14.11.3.11q4.4,0,8.794,0c.2,0,.291.053.291.27s-.094.259-.289.275A13.362,13.362,0,0,0,7.552.83,1.85,1.85,0,0,0,5.943,2.621a8.337,8.337,0,0,0-.067.918q-.005,7.472,0,14.944A9.026,9.026,0,0,0,6,19.937a1.276,1.276,0,0,0,1.415,1.215c.943.03,1.887.061,2.831.059s1.889-.017,2.831-.075a4.882,4.882,0,0,0,4.253-2.991c.334-.673.649-1.356.99-2.069" transform="translate(0 -0.101)" fill="#a6a7b4"/>
  </g>
</svg>
