<svg xmlns="http://www.w3.org/2000/svg" xmlns:xlink="http://www.w3.org/1999/xlink" width="183.552" height="30.328" viewBox="0 0 183.552 30.328">
  <defs>
    <clipPath id="clip-path">
      <rect id="Rectangle_15" data-name="Rectangle 15" width="183.552" height="30.327" fill="#a6a7b4"/>
    </clipPath>
  </defs>
  <g id="Groupe_47" data-name="Groupe 47" transform="translate(0 0)">
    <path id="Tracé_139" data-name="Tracé 139" d="M524.881,0V13.078h8.053v-1.91H527.1V0Z" transform="translate(-444.059 0.001)" fill="#a6a7b4"/>
    <path id="Tracé_140" data-name="Tracé 140" d="M568.423,0V2.34h.774L568.131,4.7h1.448l1.273-2.1V0Z" transform="translate(-480.649 0.001)" fill="#a6a7b4"/>
    <g id="Groupe_18" data-name="Groupe 18" transform="translate(0 0)">
      <g id="Groupe_17" data-name="Groupe 17" clip-path="url(#clip-path)">
        <path id="Tracé_141" data-name="Tracé 141" d="M589.041,7.433l.636,1.893,1.259,3.751h2.34L588.746,0H584.5l-4.524,13.078h2.341l6.636-5.918Zm-4.133,2.429c-.349.288-.679.407-1.034.134a.7.7,0,0,1-.244-.849c.06-.18.577-1.713.577-1.713L586.631.275l2.078,6.17s-3.635,3.28-3.8,3.417" transform="translate(-490.667 0.001)" fill="#a6a7b4"/>
        <path id="Tracé_142" data-name="Tracé 142" d="M662.354,19.181v.035c0,1.806,1.322,2.65,3.045,2.65h1.342v-1.6h-.981c-.791,0-1.259-.258-1.259-1.153V14.175h2.2V12.593h-2.2v-2.2h-2.148v2.2h-1.826v1.583h1.826Z" transform="translate(-558.819 -8.789)" fill="#a6a7b4"/>
        <path id="Tracé_143" data-name="Tracé 143" d="M760.661,67.149v0h0Z" transform="translate(-643.532 -56.809)" fill="#a6a7b4"/>
        <path id="Tracé_144" data-name="Tracé 144" d="M711.881,30.092H709.7a2,2,0,0,1-2.116,1.429c-1.308,0-2.22-.912-2.393-2.7h6.849a5.041,5.041,0,0,0,.051-.689c0-2.89-1.79-4.785-4.525-4.785-2.788,0-4.56,2-4.56,4.835,0,2.822,1.721,4.852,4.56,4.852a4.075,4.075,0,0,0,4.318-2.941m-4.318-5.233a2.36,2.36,0,0,1,2.323,2.461h-4.681c.224-1.668,1.1-2.46,2.358-2.461" transform="translate(-594.753 -19.75)" fill="#a6a7b4"/>
        <rect id="Rectangle_10" data-name="Rectangle 10" width="2.151" height="13.078" transform="translate(118.54)" fill="#a6a7b4"/>
        <rect id="Rectangle_11" data-name="Rectangle 11" width="2.254" height="2.375" transform="translate(122.41 0.001)" fill="#a6a7b4"/>
        <rect id="Rectangle_12" data-name="Rectangle 12" width="2.151" height="9.275" transform="translate(122.462 3.803)" fill="#a6a7b4"/>
        <path id="Tracé_145" data-name="Tracé 145" d="M821.871,33.034h0a4.075,4.075,0,0,0,4.319-2.943h-2.186a2,2,0,0,1-2.117,1.429c-1.307,0-2.219-.912-2.393-2.7h6.849a5.06,5.06,0,0,0,.051-.688c0-2.89-1.789-4.785-4.525-4.785-2.788,0-4.561,2-4.561,4.835,0,2.822,1.721,4.852,4.561,4.852m0-8.174h0a2.359,2.359,0,0,1,2.323,2.461h-4.683c.224-1.669,1.1-2.461,2.357-2.461" transform="translate(-691.46 -19.751)" fill="#a6a7b4"/>
        <path id="Tracé_146" data-name="Tracé 146" d="M889.35,25.457V23.34a2.983,2.983,0,0,0-3.08,2.461V23.547h-2.134v9.275h2.151v-5.2c0-1.617.809-2.168,2.478-2.168Z" transform="translate(-747.995 -19.743)" fill="#a6a7b4"/>
        <path id="Tracé_147" data-name="Tracé 147" d="M529.2,116.614a3.333,3.333,0,0,0-3.183-2.392c-2.252,0-3.889,2.015-3.889,4.839s1.617,4.852,3.889,4.852a3.5,3.5,0,0,0,3.183-2.185v1.979h2.134V110.628H529.2Zm-2.409,5.784c-1.6,0-2.478-1.291-2.478-3.337,0-2.03.878-3.321,2.478-3.321s2.478,1.291,2.478,3.321c0,2.047-.878,3.337-2.478,3.337" transform="translate(-441.727 -93.593)" fill="#a6a7b4"/>
        <path id="Tracé_148" data-name="Tracé 148" d="M594.4,133.979h0c-2.788,0-4.56,2-4.56,4.835,0,2.822,1.721,4.853,4.56,4.853a4.075,4.075,0,0,0,4.319-2.943h-2.185a2,2,0,0,1-2.117,1.429c-1.308,0-2.219-.912-2.392-2.7h6.849a5.023,5.023,0,0,0,.052-.688c0-2.891-1.789-4.785-4.525-4.785m-2.357,3.976c.223-1.669,1.1-2.461,2.358-2.461a2.36,2.36,0,0,1,2.323,2.461Z" transform="translate(-499.017 -113.348)" fill="#a6a7b4"/>
        <path id="Tracé_149" data-name="Tracé 149" d="M657.965,138v.006l-1.463-.31c-1.118-.241-1.686-.465-1.686-1.1,0-.705.843-1.1,1.772-1.1a1.835,1.835,0,0,1,1.826,1.067h2.169c-.4-1.721-2.048-2.581-4.01-2.581-2.116,0-3.837,1.084-3.837,2.788,0,1.411,1.033,2.185,2.719,2.546l1.463.327c1.342.275,1.772.62,1.772,1.322,0,.723-.688,1.187-2,1.187a1.81,1.81,0,0,1-2-1.448h-2.169c.275,1.962,1.944,2.959,4.112,2.959,2.375,0,4.113-1.067,4.113-2.908,0-1.48-.843-2.34-2.788-2.753" transform="translate(-552.05 -113.351)" fill="#a6a7b4"/>
        <path id="Tracé_150" data-name="Tracé 150" d="M851.452,133.984h0c-2.271,0-3.855,1.153-4.078,2.977h2.168a1.772,1.772,0,0,1,1.911-1.463,1.8,1.8,0,0,1,1.91,1.961v.155l-2.461.258c-1.755.172-3.837.637-3.837,2.788a3.03,3.03,0,0,0,3.045,3.015l.122,0a3.117,3.117,0,0,0,3.148-2.048v1.841h2.134v-5.918c0-1.893-1.2-3.562-4.061-3.562m1.91,5.541c0,1.549-.774,2.788-2.306,2.788a1.66,1.66,0,0,1-1.8-1.506c0-.048-.006-.1-.007-.145,0-1.205,1.273-1.377,2.444-1.515l1.669-.173Z" transform="translate(-716.632 -113.352)" fill="#a6a7b4"/>
        <path id="Tracé_151" data-name="Tracé 151" d="M909.363,129.736h0V124.8h2.2v-1.584h-2.2v-2.2h-2.151v2.2h-1.826V124.8h1.826v5.041c0,1.807,1.322,2.65,3.045,2.65H911.6v-1.6h-.981c-.791,0-1.259-.258-1.259-1.153" transform="translate(-765.975 -102.376)" fill="#a6a7b4"/>
        <rect id="Rectangle_13" data-name="Rectangle 13" width="2.254" height="2.375" transform="translate(146.573 17.035)" fill="#a6a7b4"/>
        <rect id="Rectangle_14" data-name="Rectangle 14" width="2.151" height="9.275" transform="translate(146.625 20.838)" fill="#a6a7b4"/>
        <path id="Tracé_152" data-name="Tracé 152" d="M979.71,110.62l2.889,2.65h2l-1.962-2.65Z" transform="translate(-828.853 -93.586)" fill="#a6a7b4"/>
        <path id="Tracé_153" data-name="Tracé 153" d="M978.79,133.975h0c-2.788,0-4.561,2-4.561,4.835,0,2.822,1.721,4.852,4.561,4.852a4.075,4.075,0,0,0,4.319-2.943h-2.185a2,2,0,0,1-2.117,1.429c-1.308,0-2.22-.912-2.392-2.7h6.848a4.964,4.964,0,0,0,.052-.688c0-2.891-1.789-4.785-4.525-4.785m-2.358,3.975c.224-1.669,1.1-2.461,2.358-2.461a2.36,2.36,0,0,1,2.323,2.461Z" transform="translate(-824.217 -113.345)" fill="#a6a7b4"/>
        <path id="Tracé_154" data-name="Tracé 154" d="M1043.188,136.425h0v-2.255h-2.134v9.275h2.151v-5.2c0-1.618.808-2.168,2.478-2.168h.585v-2.117a2.983,2.983,0,0,0-3.08,2.461" transform="translate(-880.75 -113.333)" fill="#a6a7b4"/>
        <path id="Tracé_155" data-name="Tracé 155" d="M1080.478,133.975h0c-2.788,0-4.56,2-4.56,4.835,0,2.822,1.721,4.852,4.56,4.852a4.075,4.075,0,0,0,4.319-2.943h-2.186a2,2,0,0,1-2.115,1.429c-1.307,0-2.219-.912-2.393-2.7h6.849a4.955,4.955,0,0,0,.052-.688c0-2.891-1.79-4.785-4.525-4.785m-2.358,3.975c.223-1.669,1.1-2.461,2.358-2.461a2.36,2.36,0,0,1,2.323,2.461Z" transform="translate(-910.245 -113.345)" fill="#a6a7b4"/>
        <path id="Tracé_156" data-name="Tracé 156" d="M1144.052,138v.006l-1.463-.31c-1.118-.241-1.686-.465-1.686-1.1,0-.705.843-1.1,1.773-1.1a1.835,1.835,0,0,1,1.826,1.067h2.168c-.4-1.721-2.048-2.581-4.01-2.581-2.117,0-3.838,1.084-3.838,2.788,0,1.411,1.033,2.185,2.719,2.546l1.463.327c1.343.275,1.772.62,1.772,1.322,0,.723-.688,1.187-2,1.187a1.809,1.809,0,0,1-2-1.448h-2.169c.275,1.962,1.944,2.959,4.113,2.959,2.375,0,4.113-1.067,4.113-2.908,0-1.48-.843-2.34-2.788-2.753" transform="translate(-963.288 -113.351)" fill="#a6a7b4"/>
        <path id="Tracé_157" data-name="Tracé 157" d="M740.912,111.3v13.078h2.218v-12.82l3.373,12.82h2.178L745.3,111.3Z" transform="translate(-626.825 -94.16)" fill="#a6a7b4"/>
        <path id="Tracé_158" data-name="Tracé 158" d="M791.38,124.377h.661s2.843-7.66,2.987-8a.983.983,0,0,1,.988-.745c.679.057.755.618.771.944s0,7.8,0,7.8h2.22V111.3h-2.815Z" transform="translate(-669.522 -94.161)" fill="#a6a7b4"/>
        <path id="Tracé_159" data-name="Tracé 159" d="M57.961,4.148c5.56.545,8.663,2.936,15.687,8.527V5.646C69.417,2.274,65.4.007,61.532.019c-3.971.009-6.544.674-10.779,3.73v0A17.667,17.667,0,0,0,38.158.489a18.475,18.475,0,0,0-9.428,4.079c-4.222-2.8-8.06-4.558-11.3-4.561h-.023A15.009,15.009,0,0,0,11.465,1.1a21.361,21.361,0,0,0-8.8,7.685,14.074,14.074,0,0,0-1.074,1.732l-.03.051A13.416,13.416,0,0,0,0,16.554C0,17.1.17,30,14.933,30c3.335,0,8.51-1.23,19.011-10.818q1.121-1.021,2.148-1.949c2.546,2.156,5.182,4.471,7.733,6.711C45.734,25.62,49,28.434,51.079,30.22h8.548l-3-2.6s-6.88-5.836-10.136-8.68C40.872,14.026,35.41,9.254,30.426,5.729a17.812,17.812,0,0,1,4.985-1.166A17.02,17.02,0,0,1,46.247,7.385c-1.635,1.539-5.739,5.23-5.993,5.408l.563.475c2.44-2.141,4.342-4.079,6.164-5.42.415.3,1.005.79,1.407,1.129C54.81,14.411,67.353,25.934,71.994,30.22h1.653v-5.9C67.959,19.015,57.715,9.546,52.089,4.8a13.865,13.865,0,0,1,5.872-.657m-22.4,12.634C26.288,24.9,21.631,25.95,18.605,25.95c-4.342,0-7.162-1-9.278-2.617,1.849-1.858,9.349-8.458,12.974-11.644.6-.526,2.661-2.347,2.661-2.347l-.641-.43L21.872,11.2c-3.647,3.2-8.415,7.394-13.267,11.56a13.725,13.725,0,0,1-4.374-9.7,13.529,13.529,0,0,1,1.989-7.5c2.014-1.213,4.789-1.5,7.517-1.5h.019c2.217,0,5.269.684,11.019,4.478l.637.426a123.869,123.869,0,0,1,10.146,7.824" transform="translate(0 -0.003)" fill="#a6a7b4"/>
      </g>
    </g>
  </g>
</svg>
